<mxfile host="app.diagrams.net" agent="Mozilla/5.0 (Windows NT 10.0; Win64; x64) AppleWebKit/537.36 (KHTML, like Gecko) Chrome/133.0.0.0 Safari/537.36" version="26.0.10" pages="5">
  <diagram name="Page-1" id="_i7zGcDAh_psAP9uEVGE">
    <mxGraphModel dx="1120" dy="468" grid="1" gridSize="10" guides="1" tooltips="1" connect="1" arrows="1" fold="1" page="1" pageScale="1" pageWidth="827" pageHeight="1169" math="0" shadow="0">
      <root>
        <mxCell id="0" />
        <mxCell id="1" parent="0" />
        <mxCell id="7Cw2yLXt6qvtKnGBGMNZ-1" value="job seeker" style="shape=umlActor;verticalLabelPosition=bottom;verticalAlign=top;html=1;outlineConnect=0;" parent="1" vertex="1">
          <mxGeometry x="20" y="240" width="30" height="140" as="geometry" />
        </mxCell>
        <mxCell id="7Cw2yLXt6qvtKnGBGMNZ-2" value="" style="rounded=0;whiteSpace=wrap;html=1;" parent="1" vertex="1">
          <mxGeometry x="417" y="40" width="166" height="500" as="geometry" />
        </mxCell>
        <mxCell id="7Cw2yLXt6qvtKnGBGMNZ-4" value="job portal" style="text;html=1;align=center;verticalAlign=middle;whiteSpace=wrap;rounded=0;" parent="1" vertex="1">
          <mxGeometry x="467" width="60" height="30" as="geometry" />
        </mxCell>
        <mxCell id="7Cw2yLXt6qvtKnGBGMNZ-11" value="log in" style="ellipse;whiteSpace=wrap;html=1;" parent="1" vertex="1">
          <mxGeometry x="437" y="40" width="120" height="40" as="geometry" />
        </mxCell>
        <mxCell id="7Cw2yLXt6qvtKnGBGMNZ-12" value="" style="endArrow=classic;html=1;rounded=0;entryX=0.075;entryY=0.7;entryDx=0;entryDy=0;entryPerimeter=0;" parent="1" edge="1">
          <mxGeometry width="50" height="50" relative="1" as="geometry">
            <mxPoint x="50" y="330" as="sourcePoint" />
            <mxPoint x="456" y="70" as="targetPoint" />
          </mxGeometry>
        </mxCell>
        <mxCell id="7Cw2yLXt6qvtKnGBGMNZ-13" style="edgeStyle=orthogonalEdgeStyle;rounded=0;orthogonalLoop=1;jettySize=auto;html=1;exitX=0.5;exitY=1;exitDx=0;exitDy=0;" parent="1" source="7Cw2yLXt6qvtKnGBGMNZ-11" target="7Cw2yLXt6qvtKnGBGMNZ-11" edge="1">
          <mxGeometry relative="1" as="geometry" />
        </mxCell>
        <mxCell id="7Cw2yLXt6qvtKnGBGMNZ-14" value="register" style="ellipse;whiteSpace=wrap;html=1;" parent="1" vertex="1">
          <mxGeometry x="437" y="80" width="120" height="40" as="geometry" />
        </mxCell>
        <mxCell id="7Cw2yLXt6qvtKnGBGMNZ-16" value="" style="endArrow=classic;html=1;rounded=0;entryX=0;entryY=0.5;entryDx=0;entryDy=0;" parent="1" edge="1">
          <mxGeometry width="50" height="50" relative="1" as="geometry">
            <mxPoint x="50" y="330" as="sourcePoint" />
            <mxPoint x="447" y="110" as="targetPoint" />
          </mxGeometry>
        </mxCell>
        <mxCell id="7Cw2yLXt6qvtKnGBGMNZ-19" value="search jobs" style="ellipse;whiteSpace=wrap;html=1;" parent="1" vertex="1">
          <mxGeometry x="437" y="160" width="120" height="40" as="geometry" />
        </mxCell>
        <mxCell id="7Cw2yLXt6qvtKnGBGMNZ-20" value="" style="endArrow=classic;html=1;rounded=0;entryX=0;entryY=0.5;entryDx=0;entryDy=0;" parent="1" target="7Cw2yLXt6qvtKnGBGMNZ-19" edge="1">
          <mxGeometry width="50" height="50" relative="1" as="geometry">
            <mxPoint x="50" y="330" as="sourcePoint" />
            <mxPoint x="440" y="220" as="targetPoint" />
          </mxGeometry>
        </mxCell>
        <mxCell id="7Cw2yLXt6qvtKnGBGMNZ-21" value="upload resume" style="ellipse;whiteSpace=wrap;html=1;" parent="1" vertex="1">
          <mxGeometry x="440" y="290" width="120" height="40" as="geometry" />
        </mxCell>
        <mxCell id="7Cw2yLXt6qvtKnGBGMNZ-22" value="apply job" style="ellipse;whiteSpace=wrap;html=1;" parent="1" vertex="1">
          <mxGeometry x="440" y="250" width="120" height="40" as="geometry" />
        </mxCell>
        <mxCell id="7Cw2yLXt6qvtKnGBGMNZ-23" value="" style="endArrow=classic;html=1;rounded=0;" parent="1" edge="1">
          <mxGeometry width="50" height="50" relative="1" as="geometry">
            <mxPoint x="50" y="330" as="sourcePoint" />
            <mxPoint x="440" y="220" as="targetPoint" />
          </mxGeometry>
        </mxCell>
        <mxCell id="7Cw2yLXt6qvtKnGBGMNZ-25" value="send / receive messages" style="ellipse;whiteSpace=wrap;html=1;" parent="1" vertex="1">
          <mxGeometry x="437" y="330" width="120" height="40" as="geometry" />
        </mxCell>
        <mxCell id="7Cw2yLXt6qvtKnGBGMNZ-26" value="" style="endArrow=classic;html=1;rounded=0;" parent="1" target="7Cw2yLXt6qvtKnGBGMNZ-25" edge="1">
          <mxGeometry width="50" height="50" relative="1" as="geometry">
            <mxPoint x="50" y="330" as="sourcePoint" />
            <mxPoint x="440" y="220" as="targetPoint" />
          </mxGeometry>
        </mxCell>
        <mxCell id="7Cw2yLXt6qvtKnGBGMNZ-27" value="view application status" style="ellipse;whiteSpace=wrap;html=1;" parent="1" vertex="1">
          <mxGeometry x="440" y="370" width="120" height="40" as="geometry" />
        </mxCell>
        <mxCell id="7Cw2yLXt6qvtKnGBGMNZ-29" value="receive interview information" style="ellipse;whiteSpace=wrap;html=1;" parent="1" vertex="1">
          <mxGeometry x="440" y="410" width="120" height="40" as="geometry" />
        </mxCell>
        <mxCell id="7Cw2yLXt6qvtKnGBGMNZ-31" value="chat" style="ellipse;whiteSpace=wrap;html=1;" parent="1" vertex="1">
          <mxGeometry x="437" y="450" width="120" height="40" as="geometry" />
        </mxCell>
        <mxCell id="7Cw2yLXt6qvtKnGBGMNZ-32" value="log out" style="ellipse;whiteSpace=wrap;html=1;" parent="1" vertex="1">
          <mxGeometry x="437" y="490" width="120" height="40" as="geometry" />
        </mxCell>
        <mxCell id="7Cw2yLXt6qvtKnGBGMNZ-33" value="" style="endArrow=classic;html=1;rounded=0;entryX=0;entryY=0.5;entryDx=0;entryDy=0;" parent="1" target="7Cw2yLXt6qvtKnGBGMNZ-27" edge="1">
          <mxGeometry width="50" height="50" relative="1" as="geometry">
            <mxPoint x="50" y="330" as="sourcePoint" />
            <mxPoint x="440" y="220" as="targetPoint" />
            <Array as="points" />
          </mxGeometry>
        </mxCell>
        <mxCell id="7Cw2yLXt6qvtKnGBGMNZ-34" value="" style="endArrow=classic;html=1;rounded=0;entryX=0.025;entryY=0.5;entryDx=0;entryDy=0;entryPerimeter=0;" parent="1" target="7Cw2yLXt6qvtKnGBGMNZ-29" edge="1">
          <mxGeometry width="50" height="50" relative="1" as="geometry">
            <mxPoint x="50" y="330" as="sourcePoint" />
            <mxPoint x="430" y="340" as="targetPoint" />
          </mxGeometry>
        </mxCell>
        <mxCell id="7Cw2yLXt6qvtKnGBGMNZ-35" value="" style="endArrow=classic;html=1;rounded=0;entryX=0;entryY=0.5;entryDx=0;entryDy=0;" parent="1" target="7Cw2yLXt6qvtKnGBGMNZ-31" edge="1">
          <mxGeometry width="50" height="50" relative="1" as="geometry">
            <mxPoint x="60" y="330" as="sourcePoint" />
            <mxPoint x="440" y="220" as="targetPoint" />
          </mxGeometry>
        </mxCell>
        <mxCell id="a4ogaL-9qbbclKtNDVx3-1" value="create profile" style="ellipse;whiteSpace=wrap;html=1;" parent="1" vertex="1">
          <mxGeometry x="437" y="120" width="120" height="40" as="geometry" />
        </mxCell>
        <mxCell id="a4ogaL-9qbbclKtNDVx3-3" value="save jobs" style="ellipse;whiteSpace=wrap;html=1;" parent="1" vertex="1">
          <mxGeometry x="437" y="200" width="120" height="50" as="geometry" />
        </mxCell>
        <mxCell id="a4ogaL-9qbbclKtNDVx3-4" value="" style="endArrow=classic;html=1;rounded=0;" parent="1" edge="1">
          <mxGeometry width="50" height="50" relative="1" as="geometry">
            <mxPoint x="50" y="330" as="sourcePoint" />
            <mxPoint x="440" y="140" as="targetPoint" />
          </mxGeometry>
        </mxCell>
        <mxCell id="a4ogaL-9qbbclKtNDVx3-6" value="" style="endArrow=classic;html=1;rounded=0;" parent="1" edge="1">
          <mxGeometry width="50" height="50" relative="1" as="geometry">
            <mxPoint x="60" y="330" as="sourcePoint" />
            <mxPoint x="440" y="270" as="targetPoint" />
          </mxGeometry>
        </mxCell>
        <mxCell id="a4ogaL-9qbbclKtNDVx3-7" value="" style="endArrow=classic;html=1;rounded=0;" parent="1" edge="1">
          <mxGeometry width="50" height="50" relative="1" as="geometry">
            <mxPoint x="50" y="330" as="sourcePoint" />
            <mxPoint x="440" y="310" as="targetPoint" />
          </mxGeometry>
        </mxCell>
        <mxCell id="a4ogaL-9qbbclKtNDVx3-8" value="" style="endArrow=classic;html=1;rounded=0;entryX=0;entryY=0.5;entryDx=0;entryDy=0;" parent="1" target="7Cw2yLXt6qvtKnGBGMNZ-32" edge="1">
          <mxGeometry width="50" height="50" relative="1" as="geometry">
            <mxPoint x="50" y="330" as="sourcePoint" />
            <mxPoint x="430" y="510" as="targetPoint" />
          </mxGeometry>
        </mxCell>
      </root>
    </mxGraphModel>
  </diagram>
  <diagram id="Y8foIh3fBwTaoQQgD1HX" name="Page-2">
    <mxGraphModel dx="2159" dy="502" grid="1" gridSize="10" guides="1" tooltips="1" connect="1" arrows="1" fold="1" page="1" pageScale="1" pageWidth="827" pageHeight="1169" math="0" shadow="0">
      <root>
        <mxCell id="0" />
        <mxCell id="1" parent="0" />
        <mxCell id="5r05_oOgDvge1DgDUfZW-1" value="" style="shape=umlActor;verticalLabelPosition=bottom;verticalAlign=top;html=1;outlineConnect=0;" parent="1" vertex="1">
          <mxGeometry x="-20" y="165" width="30" height="150" as="geometry" />
        </mxCell>
        <mxCell id="5r05_oOgDvge1DgDUfZW-2" value="" style="rounded=0;whiteSpace=wrap;html=1;" parent="1" vertex="1">
          <mxGeometry x="414" y="55" width="150" height="530" as="geometry" />
        </mxCell>
        <mxCell id="5r05_oOgDvge1DgDUfZW-3" value="job portal" style="text;html=1;align=center;verticalAlign=middle;whiteSpace=wrap;rounded=0;" parent="1" vertex="1">
          <mxGeometry x="430" y="10" width="60" height="30" as="geometry" />
        </mxCell>
        <mxCell id="tZtlT_mLV9ZtkFZ8_gCA-12" value="job provider" style="text;html=1;align=center;verticalAlign=middle;resizable=0;points=[];autosize=1;strokeColor=none;fillColor=none;" parent="1" vertex="1">
          <mxGeometry x="-40" y="340" width="90" height="30" as="geometry" />
        </mxCell>
        <mxCell id="tZtlT_mLV9ZtkFZ8_gCA-16" value="log in" style="ellipse;whiteSpace=wrap;html=1;" parent="1" vertex="1">
          <mxGeometry x="417.5" y="40" width="140" height="40" as="geometry" />
        </mxCell>
        <mxCell id="tZtlT_mLV9ZtkFZ8_gCA-17" value="register" style="ellipse;whiteSpace=wrap;html=1;" parent="1" vertex="1">
          <mxGeometry x="415" y="80" width="140" height="40" as="geometry" />
        </mxCell>
        <mxCell id="tZtlT_mLV9ZtkFZ8_gCA-19" value="job posting" style="ellipse;whiteSpace=wrap;html=1;" parent="1" vertex="1">
          <mxGeometry x="414" y="160" width="145" height="40" as="geometry" />
        </mxCell>
        <mxCell id="tZtlT_mLV9ZtkFZ8_gCA-20" value="view job application" style="ellipse;whiteSpace=wrap;html=1;" parent="1" vertex="1">
          <mxGeometry x="407.5" y="240" width="140" height="40" as="geometry" />
        </mxCell>
        <mxCell id="VJIjOTQhtY9bOPnzVm6_-3" value="short list candidate" style="ellipse;whiteSpace=wrap;html=1;" parent="1" vertex="1">
          <mxGeometry x="417.5" y="280" width="135" height="40" as="geometry" />
        </mxCell>
        <mxCell id="VJIjOTQhtY9bOPnzVm6_-4" value="send/receive messages" style="ellipse;whiteSpace=wrap;html=1;" parent="1" vertex="1">
          <mxGeometry x="422.5" y="400" width="130" height="40" as="geometry" />
        </mxCell>
        <mxCell id="VJIjOTQhtY9bOPnzVm6_-5" value="interview schedule" style="ellipse;whiteSpace=wrap;html=1;" parent="1" vertex="1">
          <mxGeometry x="418.75" y="360" width="132.5" height="40" as="geometry" />
        </mxCell>
        <mxCell id="VJIjOTQhtY9bOPnzVm6_-7" value="chat" style="ellipse;whiteSpace=wrap;html=1;" parent="1" vertex="1">
          <mxGeometry x="411" y="320" width="143" height="40" as="geometry" />
        </mxCell>
        <mxCell id="VJIjOTQhtY9bOPnzVm6_-8" value="extend job offers" style="ellipse;whiteSpace=wrap;html=1;" parent="1" vertex="1">
          <mxGeometry x="414" y="440" width="137.5" height="45" as="geometry" />
        </mxCell>
        <mxCell id="VJIjOTQhtY9bOPnzVm6_-9" value="log out" style="ellipse;whiteSpace=wrap;html=1;" parent="1" vertex="1">
          <mxGeometry x="419" y="535" width="145" height="50" as="geometry" />
        </mxCell>
        <mxCell id="VJIjOTQhtY9bOPnzVm6_-10" value="" style="endArrow=classic;html=1;rounded=0;entryX=0;entryY=0.5;entryDx=0;entryDy=0;" parent="1" target="tZtlT_mLV9ZtkFZ8_gCA-16" edge="1">
          <mxGeometry width="50" height="50" relative="1" as="geometry">
            <mxPoint x="30" y="250" as="sourcePoint" />
            <mxPoint x="420" y="60" as="targetPoint" />
            <Array as="points" />
          </mxGeometry>
        </mxCell>
        <mxCell id="VJIjOTQhtY9bOPnzVm6_-11" value="" style="endArrow=classic;html=1;rounded=0;" parent="1" edge="1">
          <mxGeometry width="50" height="50" relative="1" as="geometry">
            <mxPoint x="20" y="250" as="sourcePoint" />
            <mxPoint x="420" y="100" as="targetPoint" />
          </mxGeometry>
        </mxCell>
        <mxCell id="VJIjOTQhtY9bOPnzVm6_-14" value="" style="endArrow=classic;html=1;rounded=0;entryX=0;entryY=0.5;entryDx=0;entryDy=0;" parent="1" target="tZtlT_mLV9ZtkFZ8_gCA-19" edge="1">
          <mxGeometry width="50" height="50" relative="1" as="geometry">
            <mxPoint x="20" y="250" as="sourcePoint" />
            <mxPoint x="420" y="130" as="targetPoint" />
          </mxGeometry>
        </mxCell>
        <mxCell id="VJIjOTQhtY9bOPnzVm6_-16" value="" style="endArrow=classic;html=1;rounded=0;entryX=0.05;entryY=0.65;entryDx=0;entryDy=0;entryPerimeter=0;" parent="1" target="tZtlT_mLV9ZtkFZ8_gCA-20" edge="1">
          <mxGeometry width="50" height="50" relative="1" as="geometry">
            <mxPoint x="20" y="250" as="sourcePoint" />
            <mxPoint x="400" y="170" as="targetPoint" />
          </mxGeometry>
        </mxCell>
        <mxCell id="VJIjOTQhtY9bOPnzVm6_-17" value="" style="endArrow=classic;html=1;rounded=0;entryX=0;entryY=0.5;entryDx=0;entryDy=0;" parent="1" target="VJIjOTQhtY9bOPnzVm6_-3" edge="1">
          <mxGeometry width="50" height="50" relative="1" as="geometry">
            <mxPoint x="30" y="250" as="sourcePoint" />
            <mxPoint x="410" y="210" as="targetPoint" />
            <Array as="points" />
          </mxGeometry>
        </mxCell>
        <mxCell id="VJIjOTQhtY9bOPnzVm6_-18" value="" style="endArrow=classic;html=1;rounded=0;entryX=0;entryY=0.5;entryDx=0;entryDy=0;" parent="1" target="VJIjOTQhtY9bOPnzVm6_-4" edge="1">
          <mxGeometry width="50" height="50" relative="1" as="geometry">
            <mxPoint x="34" y="250" as="sourcePoint" />
            <mxPoint x="414" y="259.5" as="targetPoint" />
          </mxGeometry>
        </mxCell>
        <mxCell id="VJIjOTQhtY9bOPnzVm6_-19" value="" style="endArrow=classic;html=1;rounded=0;entryX=0;entryY=0.5;entryDx=0;entryDy=0;" parent="1" target="VJIjOTQhtY9bOPnzVm6_-5" edge="1">
          <mxGeometry width="50" height="50" relative="1" as="geometry">
            <mxPoint x="20" y="250" as="sourcePoint" />
            <mxPoint x="410" y="300" as="targetPoint" />
          </mxGeometry>
        </mxCell>
        <mxCell id="VJIjOTQhtY9bOPnzVm6_-20" value="" style="endArrow=classic;html=1;rounded=0;entryX=0;entryY=0.5;entryDx=0;entryDy=0;" parent="1" target="VJIjOTQhtY9bOPnzVm6_-7" edge="1">
          <mxGeometry width="50" height="50" relative="1" as="geometry">
            <mxPoint x="30" y="250" as="sourcePoint" />
            <mxPoint x="410" y="330" as="targetPoint" />
          </mxGeometry>
        </mxCell>
        <mxCell id="gL1yCy_HqsUiCYNzzdmU-1" value="create profile" style="ellipse;whiteSpace=wrap;html=1;" parent="1" vertex="1">
          <mxGeometry x="418.75" y="120" width="137.5" height="40" as="geometry" />
        </mxCell>
        <mxCell id="gL1yCy_HqsUiCYNzzdmU-2" value="" style="endArrow=classic;html=1;rounded=0;" parent="1" edge="1">
          <mxGeometry width="50" height="50" relative="1" as="geometry">
            <mxPoint x="30" y="250" as="sourcePoint" />
            <mxPoint x="420" y="140" as="targetPoint" />
          </mxGeometry>
        </mxCell>
        <mxCell id="gL1yCy_HqsUiCYNzzdmU-3" value="edit job list" style="ellipse;whiteSpace=wrap;html=1;" parent="1" vertex="1">
          <mxGeometry x="410" y="200" width="150" height="40" as="geometry" />
        </mxCell>
        <mxCell id="gL1yCy_HqsUiCYNzzdmU-5" value="" style="endArrow=classic;html=1;rounded=0;" parent="1" edge="1">
          <mxGeometry width="50" height="50" relative="1" as="geometry">
            <mxPoint x="30" y="250" as="sourcePoint" />
            <mxPoint x="410" y="220" as="targetPoint" />
          </mxGeometry>
        </mxCell>
        <mxCell id="gL1yCy_HqsUiCYNzzdmU-6" value="" style="endArrow=classic;html=1;rounded=0;" parent="1" edge="1">
          <mxGeometry width="50" height="50" relative="1" as="geometry">
            <mxPoint x="30" y="250" as="sourcePoint" />
            <mxPoint x="420" y="470" as="targetPoint" />
          </mxGeometry>
        </mxCell>
        <mxCell id="gL1yCy_HqsUiCYNzzdmU-7" value="manage accounts" style="ellipse;whiteSpace=wrap;html=1;" parent="1" vertex="1">
          <mxGeometry x="421.5" y="485" width="140" height="50" as="geometry" />
        </mxCell>
        <mxCell id="gL1yCy_HqsUiCYNzzdmU-9" value="" style="endArrow=classic;html=1;rounded=0;" parent="1" edge="1">
          <mxGeometry width="50" height="50" relative="1" as="geometry">
            <mxPoint x="40" y="260" as="sourcePoint" />
            <mxPoint x="420" y="510" as="targetPoint" />
          </mxGeometry>
        </mxCell>
        <mxCell id="gL1yCy_HqsUiCYNzzdmU-11" value="" style="endArrow=classic;html=1;rounded=0;" parent="1" edge="1">
          <mxGeometry width="50" height="50" relative="1" as="geometry">
            <mxPoint x="30" y="250" as="sourcePoint" />
            <mxPoint x="420" y="560" as="targetPoint" />
          </mxGeometry>
        </mxCell>
      </root>
    </mxGraphModel>
  </diagram>
  <diagram id="F3PpcwIPty2SQzJwxHjO" name="Page-3">
    <mxGraphModel dx="1947" dy="502" grid="1" gridSize="10" guides="1" tooltips="1" connect="1" arrows="1" fold="1" page="1" pageScale="1" pageWidth="827" pageHeight="1169" math="0" shadow="0">
      <root>
        <object label="" id="0">
          <mxCell />
        </object>
        <mxCell id="1" parent="0" />
        <mxCell id="J3r_fuctxownSdrg2yP_-1" value="plat form admin" style="shape=umlActor;verticalLabelPosition=bottom;verticalAlign=top;html=1;outlineConnect=0;" parent="1" vertex="1">
          <mxGeometry x="10" y="190" width="30" height="130" as="geometry" />
        </mxCell>
        <mxCell id="J3r_fuctxownSdrg2yP_-6" value="" style="rounded=0;whiteSpace=wrap;html=1;" parent="1" vertex="1">
          <mxGeometry x="354" y="70" width="150" height="540" as="geometry" />
        </mxCell>
        <mxCell id="J3r_fuctxownSdrg2yP_-8" value="job portal" style="text;html=1;align=center;verticalAlign=middle;whiteSpace=wrap;rounded=0;" parent="1" vertex="1">
          <mxGeometry x="384" y="30" width="60" height="30" as="geometry" />
        </mxCell>
        <mxCell id="J3r_fuctxownSdrg2yP_-9" value="manage&amp;nbsp; job listing" style="ellipse;whiteSpace=wrap;html=1;" parent="1" vertex="1">
          <mxGeometry x="360" y="120" width="140" height="50" as="geometry" />
        </mxCell>
        <mxCell id="J3r_fuctxownSdrg2yP_-10" value="manage job seeker and job provider" style="ellipse;whiteSpace=wrap;html=1;" parent="1" vertex="1">
          <mxGeometry x="361" y="170" width="136" height="50" as="geometry" />
        </mxCell>
        <mxCell id="J3r_fuctxownSdrg2yP_-11" value="notifications" style="ellipse;whiteSpace=wrap;html=1;" parent="1" vertex="1">
          <mxGeometry x="363.5" y="220" width="131" height="50" as="geometry" />
        </mxCell>
        <mxCell id="J3r_fuctxownSdrg2yP_-12" value="download details" style="ellipse;whiteSpace=wrap;html=1;" parent="1" vertex="1">
          <mxGeometry x="359" y="270" width="140" height="50" as="geometry" />
        </mxCell>
        <mxCell id="J3r_fuctxownSdrg2yP_-13" value="secure documents" style="ellipse;whiteSpace=wrap;html=1;" parent="1" vertex="1">
          <mxGeometry x="354" y="490" width="146" height="60" as="geometry" />
        </mxCell>
        <mxCell id="J3r_fuctxownSdrg2yP_-14" value="manage accounts" style="ellipse;whiteSpace=wrap;html=1;" parent="1" vertex="1">
          <mxGeometry x="357" y="370" width="140" height="60" as="geometry" />
        </mxCell>
        <mxCell id="J3r_fuctxownSdrg2yP_-15" value="" style="endArrow=classic;html=1;rounded=0;" parent="1" edge="1">
          <mxGeometry width="50" height="50" relative="1" as="geometry">
            <mxPoint x="50" y="240" as="sourcePoint" />
            <mxPoint x="340" y="90" as="targetPoint" />
          </mxGeometry>
        </mxCell>
        <mxCell id="J3r_fuctxownSdrg2yP_-16" value="" style="endArrow=classic;html=1;rounded=0;" parent="1" edge="1">
          <mxGeometry width="50" height="50" relative="1" as="geometry">
            <mxPoint x="60" y="240" as="sourcePoint" />
            <mxPoint x="360" y="150" as="targetPoint" />
          </mxGeometry>
        </mxCell>
        <mxCell id="J3r_fuctxownSdrg2yP_-17" value="" style="endArrow=classic;html=1;rounded=0;" parent="1" edge="1">
          <mxGeometry width="50" height="50" relative="1" as="geometry">
            <mxPoint x="50" y="240" as="sourcePoint" />
            <mxPoint x="350" y="210" as="targetPoint" />
          </mxGeometry>
        </mxCell>
        <mxCell id="J3r_fuctxownSdrg2yP_-18" value="" style="endArrow=classic;html=1;rounded=0;entryX=0;entryY=0.5;entryDx=0;entryDy=0;" parent="1" target="J3r_fuctxownSdrg2yP_-11" edge="1">
          <mxGeometry width="50" height="50" relative="1" as="geometry">
            <mxPoint x="50" y="240" as="sourcePoint" />
            <mxPoint x="350" y="270" as="targetPoint" />
          </mxGeometry>
        </mxCell>
        <mxCell id="J3r_fuctxownSdrg2yP_-19" value="" style="endArrow=classic;html=1;rounded=0;entryX=0;entryY=0.5;entryDx=0;entryDy=0;" parent="1" target="J3r_fuctxownSdrg2yP_-13" edge="1">
          <mxGeometry width="50" height="50" relative="1" as="geometry">
            <mxPoint x="50" y="240" as="sourcePoint" />
            <mxPoint x="340" y="330" as="targetPoint" />
          </mxGeometry>
        </mxCell>
        <mxCell id="J3r_fuctxownSdrg2yP_-20" value="" style="endArrow=classic;html=1;rounded=0;entryX=0;entryY=0.5;entryDx=0;entryDy=0;" parent="1" target="J3r_fuctxownSdrg2yP_-14" edge="1">
          <mxGeometry width="50" height="50" relative="1" as="geometry">
            <mxPoint x="60" y="240" as="sourcePoint" />
            <mxPoint x="340" y="390" as="targetPoint" />
          </mxGeometry>
        </mxCell>
        <mxCell id="CEAKeHsEQakn_pEMmcx5-1" value="log in" style="ellipse;whiteSpace=wrap;html=1;" parent="1" vertex="1">
          <mxGeometry x="360" y="70" width="134" height="50" as="geometry" />
        </mxCell>
        <mxCell id="CEAKeHsEQakn_pEMmcx5-2" value="shortlist&amp;nbsp; interviews" style="ellipse;whiteSpace=wrap;html=1;" parent="1" vertex="1">
          <mxGeometry x="359" y="320" width="131" height="50" as="geometry" />
        </mxCell>
        <mxCell id="CEAKeHsEQakn_pEMmcx5-3" value="send /receive messages with job seeker and job provider" style="ellipse;whiteSpace=wrap;html=1;" parent="1" vertex="1">
          <mxGeometry x="355" y="430" width="150" height="60" as="geometry" />
        </mxCell>
        <mxCell id="CEAKeHsEQakn_pEMmcx5-4" value="" style="endArrow=classic;html=1;rounded=0;entryX=0.033;entryY=0.333;entryDx=0;entryDy=0;entryPerimeter=0;" parent="1" target="CEAKeHsEQakn_pEMmcx5-3" edge="1">
          <mxGeometry width="50" height="50" relative="1" as="geometry">
            <mxPoint x="60" y="240" as="sourcePoint" />
            <mxPoint x="350" y="450" as="targetPoint" />
          </mxGeometry>
        </mxCell>
        <mxCell id="CEAKeHsEQakn_pEMmcx5-5" value="" style="endArrow=classic;html=1;rounded=0;entryX=-0.007;entryY=0.404;entryDx=0;entryDy=0;entryPerimeter=0;" parent="1" target="J3r_fuctxownSdrg2yP_-6" edge="1">
          <mxGeometry width="50" height="50" relative="1" as="geometry">
            <mxPoint x="50" y="250" as="sourcePoint" />
            <mxPoint x="370" y="290" as="targetPoint" />
            <Array as="points">
              <mxPoint x="50" y="240" />
            </Array>
          </mxGeometry>
        </mxCell>
        <mxCell id="CEAKeHsEQakn_pEMmcx5-6" value="" style="endArrow=classic;html=1;rounded=0;" parent="1" edge="1">
          <mxGeometry width="50" height="50" relative="1" as="geometry">
            <mxPoint x="50" y="240" as="sourcePoint" />
            <mxPoint x="360" y="340" as="targetPoint" />
          </mxGeometry>
        </mxCell>
        <mxCell id="CEAKeHsEQakn_pEMmcx5-7" value="log out" style="ellipse;whiteSpace=wrap;html=1;" parent="1" vertex="1">
          <mxGeometry x="360" y="550" width="140" height="60" as="geometry" />
        </mxCell>
      </root>
    </mxGraphModel>
  </diagram>
  <diagram id="ZNOt6J0ZevRDfs_szuBk" name="Page-4">
    <mxGraphModel dx="1120" dy="468" grid="1" gridSize="10" guides="1" tooltips="1" connect="1" arrows="1" fold="1" page="1" pageScale="1" pageWidth="827" pageHeight="1169" math="0" shadow="0">
      <root>
        <mxCell id="0" />
        <mxCell id="1" parent="0" />
        <mxCell id="s0JtuGQii-XVIwTicISK-2" value="job portal" style="swimlane;childLayout=stackLayout;resizeParent=1;resizeParentMax=0;horizontal=0;startSize=20;horizontalStack=0;html=1;" parent="1" vertex="1">
          <mxGeometry x="40" y="70" width="930" height="420" as="geometry" />
        </mxCell>
        <mxCell id="s0JtuGQii-XVIwTicISK-3" value="job seeker" style="swimlane;startSize=20;horizontal=0;html=1;" parent="s0JtuGQii-XVIwTicISK-2" vertex="1">
          <mxGeometry x="20" width="910" height="130" as="geometry" />
        </mxCell>
        <mxCell id="s0JtuGQii-XVIwTicISK-12" style="edgeStyle=orthogonalEdgeStyle;rounded=0;orthogonalLoop=1;jettySize=auto;html=1;exitX=1;exitY=0.5;exitDx=0;exitDy=0;exitPerimeter=0;entryX=0;entryY=0.75;entryDx=0;entryDy=0;" parent="s0JtuGQii-XVIwTicISK-3" source="s0JtuGQii-XVIwTicISK-7" target="s0JtuGQii-XVIwTicISK-9" edge="1">
          <mxGeometry relative="1" as="geometry" />
        </mxCell>
        <mxCell id="s0JtuGQii-XVIwTicISK-7" value="" style="points=[[0.145,0.145,0],[0.5,0,0],[0.855,0.145,0],[1,0.5,0],[0.855,0.855,0],[0.5,1,0],[0.145,0.855,0],[0,0.5,0]];shape=mxgraph.bpmn.event;html=1;verticalLabelPosition=bottom;labelBackgroundColor=#ffffff;verticalAlign=top;align=center;perimeter=ellipsePerimeter;outlineConnect=0;aspect=fixed;outline=standard;symbol=general;" parent="s0JtuGQii-XVIwTicISK-3" vertex="1">
          <mxGeometry x="40" y="35" width="35" height="35" as="geometry" />
        </mxCell>
        <mxCell id="s0JtuGQii-XVIwTicISK-19" style="edgeStyle=orthogonalEdgeStyle;rounded=0;orthogonalLoop=1;jettySize=auto;html=1;exitX=1;exitY=0.25;exitDx=0;exitDy=0;entryX=0.5;entryY=0;entryDx=0;entryDy=0;" parent="s0JtuGQii-XVIwTicISK-3" source="s0JtuGQii-XVIwTicISK-9" target="s0JtuGQii-XVIwTicISK-11" edge="1">
          <mxGeometry relative="1" as="geometry" />
        </mxCell>
        <mxCell id="s0JtuGQii-XVIwTicISK-9" value="log in" style="rounded=1;whiteSpace=wrap;html=1;arcSize=28;" parent="s0JtuGQii-XVIwTicISK-3" vertex="1">
          <mxGeometry x="100" y="10" width="70" height="30" as="geometry" />
        </mxCell>
        <mxCell id="s0JtuGQii-XVIwTicISK-10" value="register" style="rounded=1;whiteSpace=wrap;html=1;arcSize=33;" parent="s0JtuGQii-XVIwTicISK-3" vertex="1">
          <mxGeometry x="100" y="80" width="70" height="30" as="geometry" />
        </mxCell>
        <mxCell id="VKN4huHgn8qRTSJoeywx-3" style="edgeStyle=orthogonalEdgeStyle;rounded=0;orthogonalLoop=1;jettySize=auto;html=1;exitX=0.5;exitY=1;exitDx=0;exitDy=0;entryX=1;entryY=0.5;entryDx=0;entryDy=0;" parent="s0JtuGQii-XVIwTicISK-3" source="s0JtuGQii-XVIwTicISK-11" target="s0JtuGQii-XVIwTicISK-10" edge="1">
          <mxGeometry relative="1" as="geometry" />
        </mxCell>
        <mxCell id="VKN4huHgn8qRTSJoeywx-6" style="edgeStyle=orthogonalEdgeStyle;rounded=0;orthogonalLoop=1;jettySize=auto;html=1;exitX=1;exitY=0.5;exitDx=0;exitDy=0;entryX=0;entryY=0.75;entryDx=0;entryDy=0;" parent="s0JtuGQii-XVIwTicISK-3" source="s0JtuGQii-XVIwTicISK-11" target="VKN4huHgn8qRTSJoeywx-1" edge="1">
          <mxGeometry relative="1" as="geometry" />
        </mxCell>
        <mxCell id="s0JtuGQii-XVIwTicISK-11" value="" style="rhombus;whiteSpace=wrap;html=1;" parent="s0JtuGQii-XVIwTicISK-3" vertex="1">
          <mxGeometry x="190" y="28" width="60" height="47.5" as="geometry" />
        </mxCell>
        <mxCell id="rB-DLZoDK0Ta7cRxHRSP-3" style="edgeStyle=orthogonalEdgeStyle;rounded=0;orthogonalLoop=1;jettySize=auto;html=1;exitX=1;exitY=0.5;exitDx=0;exitDy=0;entryX=0;entryY=0.5;entryDx=0;entryDy=0;" parent="s0JtuGQii-XVIwTicISK-3" source="VKN4huHgn8qRTSJoeywx-1" target="1XhfdljYdwoIOPe9xmWQ-1" edge="1">
          <mxGeometry relative="1" as="geometry" />
        </mxCell>
        <mxCell id="VKN4huHgn8qRTSJoeywx-1" value="search jobs" style="rounded=1;whiteSpace=wrap;html=1;arcSize=29;" parent="s0JtuGQii-XVIwTicISK-3" vertex="1">
          <mxGeometry x="290" y="37" width="74" height="31" as="geometry" />
        </mxCell>
        <mxCell id="1XhfdljYdwoIOPe9xmWQ-7" style="edgeStyle=orthogonalEdgeStyle;rounded=0;orthogonalLoop=1;jettySize=auto;html=1;exitX=0.5;exitY=1;exitDx=0;exitDy=0;entryX=0;entryY=0.5;entryDx=0;entryDy=0;" parent="s0JtuGQii-XVIwTicISK-3" source="1XhfdljYdwoIOPe9xmWQ-1" target="1XhfdljYdwoIOPe9xmWQ-3" edge="1">
          <mxGeometry relative="1" as="geometry" />
        </mxCell>
        <mxCell id="1XhfdljYdwoIOPe9xmWQ-9" style="edgeStyle=orthogonalEdgeStyle;rounded=0;orthogonalLoop=1;jettySize=auto;html=1;exitX=0.5;exitY=0;exitDx=0;exitDy=0;entryX=0;entryY=0;entryDx=0;entryDy=0;" parent="s0JtuGQii-XVIwTicISK-3" source="1XhfdljYdwoIOPe9xmWQ-1" target="1XhfdljYdwoIOPe9xmWQ-8" edge="1">
          <mxGeometry relative="1" as="geometry" />
        </mxCell>
        <mxCell id="1XhfdljYdwoIOPe9xmWQ-1" value="" style="rhombus;whiteSpace=wrap;html=1;" parent="s0JtuGQii-XVIwTicISK-3" vertex="1">
          <mxGeometry x="390" y="28" width="60" height="50" as="geometry" />
        </mxCell>
        <mxCell id="1XhfdljYdwoIOPe9xmWQ-3" value="log out" style="rounded=1;whiteSpace=wrap;html=1;arcSize=40;" parent="s0JtuGQii-XVIwTicISK-3" vertex="1">
          <mxGeometry x="580" y="68" width="70" height="30" as="geometry" />
        </mxCell>
        <mxCell id="rB-DLZoDK0Ta7cRxHRSP-4" style="edgeStyle=orthogonalEdgeStyle;rounded=0;orthogonalLoop=1;jettySize=auto;html=1;exitX=1;exitY=0.5;exitDx=0;exitDy=0;entryX=0;entryY=0.5;entryDx=0;entryDy=0;" parent="s0JtuGQii-XVIwTicISK-3" source="1XhfdljYdwoIOPe9xmWQ-8" target="rB-DLZoDK0Ta7cRxHRSP-1" edge="1">
          <mxGeometry relative="1" as="geometry" />
        </mxCell>
        <mxCell id="1XhfdljYdwoIOPe9xmWQ-8" value="upload resume" style="rounded=1;whiteSpace=wrap;html=1;arcSize=37;" parent="s0JtuGQii-XVIwTicISK-3" vertex="1">
          <mxGeometry x="480" y="28" width="70" height="30" as="geometry" />
        </mxCell>
        <mxCell id="rB-DLZoDK0Ta7cRxHRSP-1" value="apply job" style="rounded=1;whiteSpace=wrap;html=1;arcSize=31;" parent="s0JtuGQii-XVIwTicISK-3" vertex="1">
          <mxGeometry x="580" y="20" width="70" height="32" as="geometry" />
        </mxCell>
        <mxCell id="25IoZk4CtfI0m4vXPWv0-2" style="edgeStyle=orthogonalEdgeStyle;rounded=0;orthogonalLoop=1;jettySize=auto;html=1;exitX=1;exitY=0.5;exitDx=0;exitDy=0;exitPerimeter=0;entryX=0;entryY=0.75;entryDx=0;entryDy=0;" parent="s0JtuGQii-XVIwTicISK-3" source="rB-DLZoDK0Ta7cRxHRSP-5" target="25IoZk4CtfI0m4vXPWv0-1" edge="1">
          <mxGeometry relative="1" as="geometry" />
        </mxCell>
        <mxCell id="rB-DLZoDK0Ta7cRxHRSP-5" value="" style="points=[[0.145,0.145,0],[0.5,0,0],[0.855,0.145,0],[1,0.5,0],[0.855,0.855,0],[0.5,1,0],[0.145,0.855,0],[0,0.5,0]];shape=mxgraph.bpmn.event;html=1;verticalLabelPosition=bottom;labelBackgroundColor=#ffffff;verticalAlign=top;align=center;perimeter=ellipsePerimeter;outlineConnect=0;aspect=fixed;outline=throwing;symbol=general;" parent="s0JtuGQii-XVIwTicISK-3" vertex="1">
          <mxGeometry x="693.75" y="11.75" width="35" height="35" as="geometry" />
        </mxCell>
        <mxCell id="rB-DLZoDK0Ta7cRxHRSP-6" style="edgeStyle=orthogonalEdgeStyle;rounded=0;orthogonalLoop=1;jettySize=auto;html=1;exitX=1;exitY=0.5;exitDx=0;exitDy=0;entryX=0;entryY=0.5;entryDx=0;entryDy=0;entryPerimeter=0;" parent="s0JtuGQii-XVIwTicISK-3" source="rB-DLZoDK0Ta7cRxHRSP-1" target="rB-DLZoDK0Ta7cRxHRSP-5" edge="1">
          <mxGeometry relative="1" as="geometry" />
        </mxCell>
        <mxCell id="25IoZk4CtfI0m4vXPWv0-31" style="edgeStyle=orthogonalEdgeStyle;rounded=0;orthogonalLoop=1;jettySize=auto;html=1;exitX=1;exitY=0.5;exitDx=0;exitDy=0;entryX=1;entryY=0.75;entryDx=0;entryDy=0;" parent="s0JtuGQii-XVIwTicISK-3" source="25IoZk4CtfI0m4vXPWv0-1" target="25IoZk4CtfI0m4vXPWv0-3" edge="1">
          <mxGeometry relative="1" as="geometry" />
        </mxCell>
        <mxCell id="25IoZk4CtfI0m4vXPWv0-1" value="receive interview" style="rounded=1;whiteSpace=wrap;html=1;arcSize=35;" parent="s0JtuGQii-XVIwTicISK-3" vertex="1">
          <mxGeometry x="767" y="11.750000000000004" width="60" height="28.25" as="geometry" />
        </mxCell>
        <mxCell id="25IoZk4CtfI0m4vXPWv0-32" style="edgeStyle=orthogonalEdgeStyle;rounded=0;orthogonalLoop=1;jettySize=auto;html=1;exitX=0;exitY=0.5;exitDx=0;exitDy=0;entryX=1;entryY=0.5;entryDx=0;entryDy=0;" parent="s0JtuGQii-XVIwTicISK-3" source="25IoZk4CtfI0m4vXPWv0-3" target="1XhfdljYdwoIOPe9xmWQ-3" edge="1">
          <mxGeometry relative="1" as="geometry" />
        </mxCell>
        <mxCell id="25IoZk4CtfI0m4vXPWv0-3" value="update result" style="rounded=1;whiteSpace=wrap;html=1;arcSize=50;" parent="s0JtuGQii-XVIwTicISK-3" vertex="1">
          <mxGeometry x="767" y="58" width="62.5" height="30" as="geometry" />
        </mxCell>
        <mxCell id="25IoZk4CtfI0m4vXPWv0-33" value="" style="points=[[0.145,0.145,0],[0.5,0,0],[0.855,0.145,0],[1,0.5,0],[0.855,0.855,0],[0.5,1,0],[0.145,0.855,0],[0,0.5,0]];shape=mxgraph.bpmn.event;html=1;verticalLabelPosition=bottom;labelBackgroundColor=#ffffff;verticalAlign=top;align=center;perimeter=ellipsePerimeter;outlineConnect=0;aspect=fixed;outline=end;symbol=terminate2;" parent="s0JtuGQii-XVIwTicISK-3" vertex="1">
          <mxGeometry x="728.75" y="88" width="30" height="30" as="geometry" />
        </mxCell>
        <mxCell id="25IoZk4CtfI0m4vXPWv0-34" style="edgeStyle=orthogonalEdgeStyle;rounded=0;orthogonalLoop=1;jettySize=auto;html=1;exitX=0.5;exitY=1;exitDx=0;exitDy=0;entryX=0.145;entryY=0.855;entryDx=0;entryDy=0;entryPerimeter=0;" parent="s0JtuGQii-XVIwTicISK-3" source="1XhfdljYdwoIOPe9xmWQ-3" target="25IoZk4CtfI0m4vXPWv0-33" edge="1">
          <mxGeometry relative="1" as="geometry" />
        </mxCell>
        <mxCell id="s0JtuGQii-XVIwTicISK-4" value="job provider" style="swimlane;startSize=20;horizontal=0;html=1;" parent="s0JtuGQii-XVIwTicISK-2" vertex="1">
          <mxGeometry x="20" y="130" width="910" height="160" as="geometry" />
        </mxCell>
        <mxCell id="KWFW2OMm2FbnfPcYmjSt-2" value="log in" style="rounded=1;whiteSpace=wrap;html=1;arcSize=44;" vertex="1" parent="s0JtuGQii-XVIwTicISK-4">
          <mxGeometry x="100" y="10" width="70" height="30" as="geometry" />
        </mxCell>
        <mxCell id="KWFW2OMm2FbnfPcYmjSt-9" style="edgeStyle=orthogonalEdgeStyle;rounded=0;orthogonalLoop=1;jettySize=auto;html=1;exitX=0.5;exitY=1;exitDx=0;exitDy=0;entryX=1;entryY=0.75;entryDx=0;entryDy=0;" edge="1" parent="s0JtuGQii-XVIwTicISK-4" source="KWFW2OMm2FbnfPcYmjSt-3" target="KWFW2OMm2FbnfPcYmjSt-5">
          <mxGeometry relative="1" as="geometry" />
        </mxCell>
        <mxCell id="KWFW2OMm2FbnfPcYmjSt-12" style="edgeStyle=orthogonalEdgeStyle;rounded=0;orthogonalLoop=1;jettySize=auto;html=1;exitX=1;exitY=0.5;exitDx=0;exitDy=0;entryX=0;entryY=0.5;entryDx=0;entryDy=0;" edge="1" parent="s0JtuGQii-XVIwTicISK-4" source="KWFW2OMm2FbnfPcYmjSt-3" target="KWFW2OMm2FbnfPcYmjSt-10">
          <mxGeometry relative="1" as="geometry" />
        </mxCell>
        <mxCell id="KWFW2OMm2FbnfPcYmjSt-3" value="" style="rhombus;whiteSpace=wrap;html=1;" vertex="1" parent="s0JtuGQii-XVIwTicISK-4">
          <mxGeometry x="180" y="30" width="60" height="50" as="geometry" />
        </mxCell>
        <mxCell id="KWFW2OMm2FbnfPcYmjSt-5" value="register" style="rounded=1;whiteSpace=wrap;html=1;arcSize=50;" vertex="1" parent="s0JtuGQii-XVIwTicISK-4">
          <mxGeometry x="95" y="90" width="75" height="30" as="geometry" />
        </mxCell>
        <mxCell id="KWFW2OMm2FbnfPcYmjSt-7" style="edgeStyle=orthogonalEdgeStyle;rounded=0;orthogonalLoop=1;jettySize=auto;html=1;exitX=0.5;exitY=0;exitDx=0;exitDy=0;exitPerimeter=0;entryX=0;entryY=0.25;entryDx=0;entryDy=0;" edge="1" parent="s0JtuGQii-XVIwTicISK-4" source="KWFW2OMm2FbnfPcYmjSt-6" target="KWFW2OMm2FbnfPcYmjSt-2">
          <mxGeometry relative="1" as="geometry" />
        </mxCell>
        <mxCell id="KWFW2OMm2FbnfPcYmjSt-6" value="" style="points=[[0.145,0.145,0],[0.5,0,0],[0.855,0.145,0],[1,0.5,0],[0.855,0.855,0],[0.5,1,0],[0.145,0.855,0],[0,0.5,0]];shape=mxgraph.bpmn.event;html=1;verticalLabelPosition=bottom;labelBackgroundColor=#ffffff;verticalAlign=top;align=center;perimeter=ellipsePerimeter;outlineConnect=0;aspect=fixed;outline=standard;symbol=general;" vertex="1" parent="s0JtuGQii-XVIwTicISK-4">
          <mxGeometry x="33" y="50" width="40" height="40" as="geometry" />
        </mxCell>
        <mxCell id="KWFW2OMm2FbnfPcYmjSt-8" style="edgeStyle=orthogonalEdgeStyle;rounded=0;orthogonalLoop=1;jettySize=auto;html=1;exitX=1;exitY=0.5;exitDx=0;exitDy=0;entryX=0.617;entryY=0.02;entryDx=0;entryDy=0;entryPerimeter=0;" edge="1" parent="s0JtuGQii-XVIwTicISK-4" source="KWFW2OMm2FbnfPcYmjSt-2" target="KWFW2OMm2FbnfPcYmjSt-3">
          <mxGeometry relative="1" as="geometry" />
        </mxCell>
        <mxCell id="g2zTZsAlgEccAjsFDs7z-13" style="edgeStyle=orthogonalEdgeStyle;rounded=0;orthogonalLoop=1;jettySize=auto;html=1;exitX=1;exitY=0.5;exitDx=0;exitDy=0;entryX=0;entryY=0.5;entryDx=0;entryDy=0;" edge="1" parent="s0JtuGQii-XVIwTicISK-4" source="KWFW2OMm2FbnfPcYmjSt-10" target="iNiOcWMetxKGHq7bocXC-1">
          <mxGeometry relative="1" as="geometry" />
        </mxCell>
        <mxCell id="KWFW2OMm2FbnfPcYmjSt-10" value="job posting" style="rounded=1;whiteSpace=wrap;html=1;arcSize=50;" vertex="1" parent="s0JtuGQii-XVIwTicISK-4">
          <mxGeometry x="284" y="40" width="70" height="30" as="geometry" />
        </mxCell>
        <mxCell id="g2zTZsAlgEccAjsFDs7z-15" style="edgeStyle=orthogonalEdgeStyle;rounded=0;orthogonalLoop=1;jettySize=auto;html=1;exitX=1;exitY=0.25;exitDx=0;exitDy=0;" edge="1" parent="s0JtuGQii-XVIwTicISK-4" source="iNiOcWMetxKGHq7bocXC-1" target="g2zTZsAlgEccAjsFDs7z-1">
          <mxGeometry relative="1" as="geometry" />
        </mxCell>
        <mxCell id="iNiOcWMetxKGHq7bocXC-1" value="short list candidate" style="rounded=1;whiteSpace=wrap;html=1;arcSize=50;" vertex="1" parent="s0JtuGQii-XVIwTicISK-4">
          <mxGeometry x="400" y="15" width="70" height="35" as="geometry" />
        </mxCell>
        <mxCell id="g2zTZsAlgEccAjsFDs7z-16" style="edgeStyle=orthogonalEdgeStyle;rounded=0;orthogonalLoop=1;jettySize=auto;html=1;exitX=1;exitY=0.5;exitDx=0;exitDy=0;exitPerimeter=0;entryX=0;entryY=0.75;entryDx=0;entryDy=0;" edge="1" parent="s0JtuGQii-XVIwTicISK-4" source="g2zTZsAlgEccAjsFDs7z-1" target="g2zTZsAlgEccAjsFDs7z-3">
          <mxGeometry relative="1" as="geometry">
            <mxPoint x="550" y="40" as="targetPoint" />
          </mxGeometry>
        </mxCell>
        <mxCell id="g2zTZsAlgEccAjsFDs7z-1" value="" style="points=[[0.145,0.145,0],[0.5,0,0],[0.855,0.145,0],[1,0.5,0],[0.855,0.855,0],[0.5,1,0],[0.145,0.855,0],[0,0.5,0]];shape=mxgraph.bpmn.event;html=1;verticalLabelPosition=bottom;labelBackgroundColor=#ffffff;verticalAlign=top;align=center;perimeter=ellipsePerimeter;outlineConnect=0;aspect=fixed;outline=throwing;symbol=general;" vertex="1" parent="s0JtuGQii-XVIwTicISK-4">
          <mxGeometry x="480" y="60" width="40" height="40" as="geometry" />
        </mxCell>
        <mxCell id="g2zTZsAlgEccAjsFDs7z-17" style="edgeStyle=orthogonalEdgeStyle;rounded=0;orthogonalLoop=1;jettySize=auto;html=1;exitX=1;exitY=0.5;exitDx=0;exitDy=0;entryX=0.5;entryY=0;entryDx=0;entryDy=0;" edge="1" parent="s0JtuGQii-XVIwTicISK-4" source="g2zTZsAlgEccAjsFDs7z-3" target="g2zTZsAlgEccAjsFDs7z-4">
          <mxGeometry relative="1" as="geometry" />
        </mxCell>
        <mxCell id="g2zTZsAlgEccAjsFDs7z-3" value="interview scheduled" style="rounded=1;whiteSpace=wrap;html=1;arcSize=43;" vertex="1" parent="s0JtuGQii-XVIwTicISK-4">
          <mxGeometry x="560" y="25" width="70" height="30" as="geometry" />
        </mxCell>
        <mxCell id="g2zTZsAlgEccAjsFDs7z-18" style="edgeStyle=orthogonalEdgeStyle;rounded=0;orthogonalLoop=1;jettySize=auto;html=1;exitX=0.5;exitY=1;exitDx=0;exitDy=0;entryX=1;entryY=0.5;entryDx=0;entryDy=0;" edge="1" parent="s0JtuGQii-XVIwTicISK-4" source="g2zTZsAlgEccAjsFDs7z-4" target="g2zTZsAlgEccAjsFDs7z-6">
          <mxGeometry relative="1" as="geometry" />
        </mxCell>
        <mxCell id="g2zTZsAlgEccAjsFDs7z-19" style="edgeStyle=orthogonalEdgeStyle;rounded=0;orthogonalLoop=1;jettySize=auto;html=1;exitX=1;exitY=0.5;exitDx=0;exitDy=0;entryX=0;entryY=0.25;entryDx=0;entryDy=0;" edge="1" parent="s0JtuGQii-XVIwTicISK-4" source="g2zTZsAlgEccAjsFDs7z-4" target="g2zTZsAlgEccAjsFDs7z-7">
          <mxGeometry relative="1" as="geometry">
            <Array as="points">
              <mxPoint x="747" y="80" />
              <mxPoint x="747" y="28" />
            </Array>
          </mxGeometry>
        </mxCell>
        <mxCell id="g2zTZsAlgEccAjsFDs7z-4" value="" style="rhombus;whiteSpace=wrap;html=1;" vertex="1" parent="s0JtuGQii-XVIwTicISK-4">
          <mxGeometry x="670" y="55" width="60" height="50" as="geometry" />
        </mxCell>
        <mxCell id="g2zTZsAlgEccAjsFDs7z-6" value="rejection" style="rounded=1;whiteSpace=wrap;html=1;arcSize=43;" vertex="1" parent="s0JtuGQii-XVIwTicISK-4">
          <mxGeometry x="560" y="105" width="70" height="35" as="geometry" />
        </mxCell>
        <mxCell id="g2zTZsAlgEccAjsFDs7z-22" style="edgeStyle=orthogonalEdgeStyle;rounded=0;orthogonalLoop=1;jettySize=auto;html=1;exitX=0.5;exitY=1;exitDx=0;exitDy=0;entryX=0.5;entryY=0;entryDx=0;entryDy=0;" edge="1" parent="s0JtuGQii-XVIwTicISK-4" source="g2zTZsAlgEccAjsFDs7z-7" target="g2zTZsAlgEccAjsFDs7z-9">
          <mxGeometry relative="1" as="geometry" />
        </mxCell>
        <mxCell id="g2zTZsAlgEccAjsFDs7z-7" value="selection" style="rounded=1;whiteSpace=wrap;html=1;arcSize=50;" vertex="1" parent="s0JtuGQii-XVIwTicISK-4">
          <mxGeometry x="767" y="20" width="70" height="30" as="geometry" />
        </mxCell>
        <mxCell id="g2zTZsAlgEccAjsFDs7z-9" value="log out" style="rounded=1;whiteSpace=wrap;html=1;arcSize=47;" vertex="1" parent="s0JtuGQii-XVIwTicISK-4">
          <mxGeometry x="767" y="90" width="68" height="30" as="geometry" />
        </mxCell>
        <mxCell id="g2zTZsAlgEccAjsFDs7z-10" value="" style="points=[[0.145,0.145,0],[0.5,0,0],[0.855,0.145,0],[1,0.5,0],[0.855,0.855,0],[0.5,1,0],[0.145,0.855,0],[0,0.5,0]];shape=mxgraph.bpmn.event;html=1;verticalLabelPosition=bottom;labelBackgroundColor=#ffffff;verticalAlign=top;align=center;perimeter=ellipsePerimeter;outlineConnect=0;aspect=fixed;outline=end;symbol=terminate2;" vertex="1" parent="s0JtuGQii-XVIwTicISK-4">
          <mxGeometry x="850" y="55" width="35" height="35" as="geometry" />
        </mxCell>
        <mxCell id="g2zTZsAlgEccAjsFDs7z-23" style="edgeStyle=orthogonalEdgeStyle;rounded=0;orthogonalLoop=1;jettySize=auto;html=1;exitX=1;exitY=0.5;exitDx=0;exitDy=0;entryX=0.5;entryY=1;entryDx=0;entryDy=0;entryPerimeter=0;" edge="1" parent="s0JtuGQii-XVIwTicISK-4" source="g2zTZsAlgEccAjsFDs7z-9" target="g2zTZsAlgEccAjsFDs7z-10">
          <mxGeometry relative="1" as="geometry" />
        </mxCell>
        <mxCell id="s0JtuGQii-XVIwTicISK-5" value="job admin" style="swimlane;startSize=20;horizontal=0;html=1;" parent="s0JtuGQii-XVIwTicISK-2" vertex="1">
          <mxGeometry x="20" y="290" width="910" height="130" as="geometry" />
        </mxCell>
        <mxCell id="4U97YDuHUUlQpydc4nOT-3" style="edgeStyle=orthogonalEdgeStyle;rounded=0;orthogonalLoop=1;jettySize=auto;html=1;exitX=1;exitY=0.5;exitDx=0;exitDy=0;exitPerimeter=0;entryX=0.5;entryY=1;entryDx=0;entryDy=0;" edge="1" parent="s0JtuGQii-XVIwTicISK-5" source="g2zTZsAlgEccAjsFDs7z-24" target="g2zTZsAlgEccAjsFDs7z-25">
          <mxGeometry relative="1" as="geometry">
            <Array as="points">
              <mxPoint x="75" y="70" />
              <mxPoint x="135" y="70" />
            </Array>
          </mxGeometry>
        </mxCell>
        <mxCell id="g2zTZsAlgEccAjsFDs7z-24" value="" style="points=[[0.145,0.145,0],[0.5,0,0],[0.855,0.145,0],[1,0.5,0],[0.855,0.855,0],[0.5,1,0],[0.145,0.855,0],[0,0.5,0]];shape=mxgraph.bpmn.event;html=1;verticalLabelPosition=bottom;labelBackgroundColor=#ffffff;verticalAlign=top;align=center;perimeter=ellipsePerimeter;outlineConnect=0;aspect=fixed;outline=standard;symbol=general;" vertex="1" parent="s0JtuGQii-XVIwTicISK-5">
          <mxGeometry x="35" y="45" width="40" height="40" as="geometry" />
        </mxCell>
        <mxCell id="4U97YDuHUUlQpydc4nOT-4" style="edgeStyle=orthogonalEdgeStyle;rounded=0;orthogonalLoop=1;jettySize=auto;html=1;exitX=1;exitY=0.5;exitDx=0;exitDy=0;entryX=0;entryY=0.5;entryDx=0;entryDy=0;" edge="1" parent="s0JtuGQii-XVIwTicISK-5" source="g2zTZsAlgEccAjsFDs7z-25" target="x1mAZ0kKKsrfgxxzZp0B-1">
          <mxGeometry relative="1" as="geometry" />
        </mxCell>
        <mxCell id="g2zTZsAlgEccAjsFDs7z-25" value="job listing" style="rounded=1;whiteSpace=wrap;html=1;arcSize=28;" vertex="1" parent="s0JtuGQii-XVIwTicISK-5">
          <mxGeometry x="100" y="20" width="70" height="30" as="geometry" />
        </mxCell>
        <mxCell id="4U97YDuHUUlQpydc4nOT-6" style="edgeStyle=orthogonalEdgeStyle;rounded=0;orthogonalLoop=1;jettySize=auto;html=1;exitX=1;exitY=0.5;exitDx=0;exitDy=0;" edge="1" parent="s0JtuGQii-XVIwTicISK-5" source="x1mAZ0kKKsrfgxxzZp0B-1" target="x1mAZ0kKKsrfgxxzZp0B-2">
          <mxGeometry relative="1" as="geometry" />
        </mxCell>
        <mxCell id="x1mAZ0kKKsrfgxxzZp0B-1" value="download details" style="rounded=1;whiteSpace=wrap;html=1;arcSize=33;" vertex="1" parent="s0JtuGQii-XVIwTicISK-5">
          <mxGeometry x="220" y="20" width="70" height="30" as="geometry" />
        </mxCell>
        <mxCell id="4U97YDuHUUlQpydc4nOT-7" style="edgeStyle=orthogonalEdgeStyle;rounded=0;orthogonalLoop=1;jettySize=auto;html=1;exitX=0.5;exitY=0;exitDx=0;exitDy=0;entryX=0;entryY=0.75;entryDx=0;entryDy=0;" edge="1" parent="s0JtuGQii-XVIwTicISK-5" source="x1mAZ0kKKsrfgxxzZp0B-2" target="x1mAZ0kKKsrfgxxzZp0B-3">
          <mxGeometry relative="1" as="geometry" />
        </mxCell>
        <mxCell id="4U97YDuHUUlQpydc4nOT-8" style="edgeStyle=orthogonalEdgeStyle;rounded=0;orthogonalLoop=1;jettySize=auto;html=1;exitX=0.5;exitY=1;exitDx=0;exitDy=0;entryX=0;entryY=0.5;entryDx=0;entryDy=0;" edge="1" parent="s0JtuGQii-XVIwTicISK-5" source="x1mAZ0kKKsrfgxxzZp0B-2" target="x1mAZ0kKKsrfgxxzZp0B-4">
          <mxGeometry relative="1" as="geometry" />
        </mxCell>
        <mxCell id="x1mAZ0kKKsrfgxxzZp0B-2" value="" style="rhombus;whiteSpace=wrap;html=1;" vertex="1" parent="s0JtuGQii-XVIwTicISK-5">
          <mxGeometry x="324" y="35" width="60" height="50" as="geometry" />
        </mxCell>
        <mxCell id="x1mAZ0kKKsrfgxxzZp0B-3" value="approve job provider" style="rounded=1;whiteSpace=wrap;html=1;arcSize=27;" vertex="1" parent="s0JtuGQii-XVIwTicISK-5">
          <mxGeometry x="420" y="20" width="70" height="30" as="geometry" />
        </mxCell>
        <mxCell id="x1mAZ0kKKsrfgxxzZp0B-4" value="approve job seeker" style="rounded=1;whiteSpace=wrap;html=1;arcSize=27;" vertex="1" parent="s0JtuGQii-XVIwTicISK-5">
          <mxGeometry x="420" y="80" width="70" height="30" as="geometry" />
        </mxCell>
        <mxCell id="4U97YDuHUUlQpydc4nOT-11" style="edgeStyle=orthogonalEdgeStyle;rounded=0;orthogonalLoop=1;jettySize=auto;html=1;exitX=1;exitY=0.5;exitDx=0;exitDy=0;exitPerimeter=0;entryX=0.25;entryY=1;entryDx=0;entryDy=0;" edge="1" parent="s0JtuGQii-XVIwTicISK-5" source="x1mAZ0kKKsrfgxxzZp0B-5" target="x1mAZ0kKKsrfgxxzZp0B-6">
          <mxGeometry relative="1" as="geometry" />
        </mxCell>
        <mxCell id="x1mAZ0kKKsrfgxxzZp0B-5" value="" style="points=[[0.145,0.145,0],[0.5,0,0],[0.855,0.145,0],[1,0.5,0],[0.855,0.855,0],[0.5,1,0],[0.145,0.855,0],[0,0.5,0]];shape=mxgraph.bpmn.event;html=1;verticalLabelPosition=bottom;labelBackgroundColor=#ffffff;verticalAlign=top;align=center;perimeter=ellipsePerimeter;outlineConnect=0;aspect=fixed;outline=throwing;symbol=general;" vertex="1" parent="s0JtuGQii-XVIwTicISK-5">
          <mxGeometry x="520" y="42.5" width="35" height="35" as="geometry" />
        </mxCell>
        <mxCell id="4U97YDuHUUlQpydc4nOT-12" style="edgeStyle=orthogonalEdgeStyle;rounded=0;orthogonalLoop=1;jettySize=auto;html=1;exitX=1;exitY=0.5;exitDx=0;exitDy=0;entryX=0.5;entryY=0;entryDx=0;entryDy=0;" edge="1" parent="s0JtuGQii-XVIwTicISK-5" source="x1mAZ0kKKsrfgxxzZp0B-6" target="4U97YDuHUUlQpydc4nOT-1">
          <mxGeometry relative="1" as="geometry" />
        </mxCell>
        <mxCell id="x1mAZ0kKKsrfgxxzZp0B-6" value="notification" style="rounded=1;whiteSpace=wrap;html=1;arcSize=27;" vertex="1" parent="s0JtuGQii-XVIwTicISK-5">
          <mxGeometry x="580" y="20" width="70" height="30" as="geometry" />
        </mxCell>
        <mxCell id="4U97YDuHUUlQpydc4nOT-15" style="edgeStyle=orthogonalEdgeStyle;rounded=0;orthogonalLoop=1;jettySize=auto;html=1;exitX=1;exitY=0.25;exitDx=0;exitDy=0;" edge="1" parent="s0JtuGQii-XVIwTicISK-5" source="4U97YDuHUUlQpydc4nOT-1" target="4U97YDuHUUlQpydc4nOT-2">
          <mxGeometry relative="1" as="geometry" />
        </mxCell>
        <mxCell id="4U97YDuHUUlQpydc4nOT-1" value="manage accounts" style="rounded=1;whiteSpace=wrap;html=1;arcSize=33;" vertex="1" parent="s0JtuGQii-XVIwTicISK-5">
          <mxGeometry x="660" y="77.5" width="70" height="30" as="geometry" />
        </mxCell>
        <mxCell id="4U97YDuHUUlQpydc4nOT-2" value="" style="points=[[0.145,0.145,0],[0.5,0,0],[0.855,0.145,0],[1,0.5,0],[0.855,0.855,0],[0.5,1,0],[0.145,0.855,0],[0,0.5,0]];shape=mxgraph.bpmn.event;html=1;verticalLabelPosition=bottom;labelBackgroundColor=#ffffff;verticalAlign=top;align=center;perimeter=ellipsePerimeter;outlineConnect=0;aspect=fixed;outline=end;symbol=terminate2;" vertex="1" parent="s0JtuGQii-XVIwTicISK-5">
          <mxGeometry x="780" y="35" width="40" height="40" as="geometry" />
        </mxCell>
        <mxCell id="4U97YDuHUUlQpydc4nOT-9" style="edgeStyle=orthogonalEdgeStyle;rounded=0;orthogonalLoop=1;jettySize=auto;html=1;exitX=1;exitY=0.5;exitDx=0;exitDy=0;entryX=0.5;entryY=0;entryDx=0;entryDy=0;entryPerimeter=0;" edge="1" parent="s0JtuGQii-XVIwTicISK-5" source="x1mAZ0kKKsrfgxxzZp0B-3" target="x1mAZ0kKKsrfgxxzZp0B-5">
          <mxGeometry relative="1" as="geometry" />
        </mxCell>
      </root>
    </mxGraphModel>
  </diagram>
  <diagram id="4dtBFRHFihOpVwrJQaI2" name="Page-5">
    <mxGraphModel dx="1120" dy="502" grid="1" gridSize="10" guides="1" tooltips="1" connect="1" arrows="1" fold="1" page="1" pageScale="1" pageWidth="827" pageHeight="1169" math="0" shadow="0">
      <root>
        <mxCell id="0" />
        <mxCell id="1" parent="0" />
        <mxCell id="5oRt-FKKoN_MMxPoQZqj-1" value="job portal" style="swimlane;html=1;childLayout=stackLayout;resizeParent=1;resizeParentMax=0;horizontal=0;startSize=20;horizontalStack=0;whiteSpace=wrap;" parent="1" vertex="1">
          <mxGeometry x="50" y="70" width="990" height="480" as="geometry" />
        </mxCell>
        <mxCell id="5oRt-FKKoN_MMxPoQZqj-2" value="job seeker" style="swimlane;html=1;startSize=20;horizontal=0;" parent="5oRt-FKKoN_MMxPoQZqj-1" vertex="1">
          <mxGeometry x="20" width="970" height="170" as="geometry" />
        </mxCell>
        <mxCell id="5oRt-FKKoN_MMxPoQZqj-11" style="edgeStyle=orthogonalEdgeStyle;rounded=0;orthogonalLoop=1;jettySize=auto;html=1;exitX=1;exitY=0.5;exitDx=0;exitDy=0;exitPerimeter=0;entryX=0;entryY=0.25;entryDx=0;entryDy=0;" parent="5oRt-FKKoN_MMxPoQZqj-2" source="5oRt-FKKoN_MMxPoQZqj-5" target="5oRt-FKKoN_MMxPoQZqj-6" edge="1">
          <mxGeometry relative="1" as="geometry" />
        </mxCell>
        <mxCell id="5oRt-FKKoN_MMxPoQZqj-5" value="" style="points=[[0.145,0.145,0],[0.5,0,0],[0.855,0.145,0],[1,0.5,0],[0.855,0.855,0],[0.5,1,0],[0.145,0.855,0],[0,0.5,0]];shape=mxgraph.bpmn.event;html=1;verticalLabelPosition=bottom;labelBackgroundColor=#ffffff;verticalAlign=top;align=center;perimeter=ellipsePerimeter;outlineConnect=0;aspect=fixed;outline=standard;symbol=general;" parent="5oRt-FKKoN_MMxPoQZqj-2" vertex="1">
          <mxGeometry x="30" y="35" width="35" height="35" as="geometry" />
        </mxCell>
        <mxCell id="5oRt-FKKoN_MMxPoQZqj-9" style="edgeStyle=orthogonalEdgeStyle;rounded=0;orthogonalLoop=1;jettySize=auto;html=1;exitX=1;exitY=0.5;exitDx=0;exitDy=0;entryX=0.5;entryY=0;entryDx=0;entryDy=0;" parent="5oRt-FKKoN_MMxPoQZqj-2" source="5oRt-FKKoN_MMxPoQZqj-6" target="5oRt-FKKoN_MMxPoQZqj-8" edge="1">
          <mxGeometry relative="1" as="geometry" />
        </mxCell>
        <mxCell id="5oRt-FKKoN_MMxPoQZqj-6" value="log in" style="rounded=1;whiteSpace=wrap;html=1;arcSize=30;" parent="5oRt-FKKoN_MMxPoQZqj-2" vertex="1">
          <mxGeometry x="110" y="20" width="50" height="20" as="geometry" />
        </mxCell>
        <mxCell id="5oRt-FKKoN_MMxPoQZqj-7" value="register" style="rounded=1;whiteSpace=wrap;html=1;arcSize=35;" parent="5oRt-FKKoN_MMxPoQZqj-2" vertex="1">
          <mxGeometry x="110" y="70" width="50" height="20" as="geometry" />
        </mxCell>
        <mxCell id="5oRt-FKKoN_MMxPoQZqj-10" style="edgeStyle=orthogonalEdgeStyle;rounded=0;orthogonalLoop=1;jettySize=auto;html=1;exitX=0.5;exitY=1;exitDx=0;exitDy=0;entryX=0.5;entryY=1;entryDx=0;entryDy=0;" parent="5oRt-FKKoN_MMxPoQZqj-2" source="5oRt-FKKoN_MMxPoQZqj-8" target="5oRt-FKKoN_MMxPoQZqj-7" edge="1">
          <mxGeometry relative="1" as="geometry" />
        </mxCell>
        <mxCell id="My7vY06l3fIDORvMt6cX-3" style="edgeStyle=orthogonalEdgeStyle;rounded=0;orthogonalLoop=1;jettySize=auto;html=1;exitX=1;exitY=0.5;exitDx=0;exitDy=0;entryX=0;entryY=0.5;entryDx=0;entryDy=0;" parent="5oRt-FKKoN_MMxPoQZqj-2" source="5oRt-FKKoN_MMxPoQZqj-8" target="5oRt-FKKoN_MMxPoQZqj-12" edge="1">
          <mxGeometry relative="1" as="geometry" />
        </mxCell>
        <mxCell id="5oRt-FKKoN_MMxPoQZqj-8" value="" style="rhombus;whiteSpace=wrap;html=1;" parent="5oRt-FKKoN_MMxPoQZqj-2" vertex="1">
          <mxGeometry x="180" y="40" width="50" height="50" as="geometry" />
        </mxCell>
        <mxCell id="My7vY06l3fIDORvMt6cX-8" style="edgeStyle=orthogonalEdgeStyle;rounded=0;orthogonalLoop=1;jettySize=auto;html=1;exitX=0.5;exitY=1;exitDx=0;exitDy=0;entryX=0;entryY=0.5;entryDx=0;entryDy=0;" parent="5oRt-FKKoN_MMxPoQZqj-2" source="5oRt-FKKoN_MMxPoQZqj-12" target="opUkdCrW9WiD45DHxgTi-1" edge="1">
          <mxGeometry relative="1" as="geometry" />
        </mxCell>
        <mxCell id="5oRt-FKKoN_MMxPoQZqj-12" value="create profile" style="rounded=1;whiteSpace=wrap;html=1;" parent="5oRt-FKKoN_MMxPoQZqj-2" vertex="1">
          <mxGeometry x="260" y="51.5" width="59" height="27" as="geometry" />
        </mxCell>
        <mxCell id="My7vY06l3fIDORvMt6cX-11" style="edgeStyle=orthogonalEdgeStyle;rounded=0;orthogonalLoop=1;jettySize=auto;html=1;exitX=0.5;exitY=0;exitDx=0;exitDy=0;entryX=0.5;entryY=1;entryDx=0;entryDy=0;" parent="5oRt-FKKoN_MMxPoQZqj-2" source="opUkdCrW9WiD45DHxgTi-1" target="Bh7OiZjQlr2cgnlmiATA-1" edge="1">
          <mxGeometry relative="1" as="geometry" />
        </mxCell>
        <mxCell id="opUkdCrW9WiD45DHxgTi-1" value="search jobs" style="rounded=1;whiteSpace=wrap;html=1;arcSize=32;" parent="5oRt-FKKoN_MMxPoQZqj-2" vertex="1">
          <mxGeometry x="350" y="90" width="70" height="31" as="geometry" />
        </mxCell>
        <mxCell id="My7vY06l3fIDORvMt6cX-12" style="edgeStyle=orthogonalEdgeStyle;rounded=0;orthogonalLoop=1;jettySize=auto;html=1;exitX=1;exitY=0.5;exitDx=0;exitDy=0;entryX=0;entryY=0.25;entryDx=0;entryDy=0;" parent="5oRt-FKKoN_MMxPoQZqj-2" source="Bh7OiZjQlr2cgnlmiATA-1" target="JmJ6lqUF-RNnNJ-yQEUE-1" edge="1">
          <mxGeometry relative="1" as="geometry">
            <mxPoint x="460" y="50" as="targetPoint" />
            <Array as="points">
              <mxPoint x="440" y="25" />
              <mxPoint x="440" y="23" />
            </Array>
          </mxGeometry>
        </mxCell>
        <mxCell id="Bh7OiZjQlr2cgnlmiATA-1" value="save jobs" style="rounded=1;whiteSpace=wrap;html=1;arcSize=30;" parent="5oRt-FKKoN_MMxPoQZqj-2" vertex="1">
          <mxGeometry x="350" y="10" width="70" height="30" as="geometry" />
        </mxCell>
        <mxCell id="f55HqNZ3i_IYQzIqUW61-2" value="" style="edgeStyle=orthogonalEdgeStyle;rounded=0;orthogonalLoop=1;jettySize=auto;html=1;" parent="5oRt-FKKoN_MMxPoQZqj-2" source="JmJ6lqUF-RNnNJ-yQEUE-1" target="f55HqNZ3i_IYQzIqUW61-1" edge="1">
          <mxGeometry relative="1" as="geometry" />
        </mxCell>
        <mxCell id="JmJ6lqUF-RNnNJ-yQEUE-1" value="apply job" style="rounded=1;whiteSpace=wrap;html=1;arcSize=30;" parent="5oRt-FKKoN_MMxPoQZqj-2" vertex="1">
          <mxGeometry x="460" y="15" width="70" height="30" as="geometry" />
        </mxCell>
        <mxCell id="f55HqNZ3i_IYQzIqUW61-4" value="" style="edgeStyle=orthogonalEdgeStyle;rounded=0;orthogonalLoop=1;jettySize=auto;html=1;" parent="5oRt-FKKoN_MMxPoQZqj-2" source="f55HqNZ3i_IYQzIqUW61-1" target="f55HqNZ3i_IYQzIqUW61-3" edge="1">
          <mxGeometry relative="1" as="geometry" />
        </mxCell>
        <mxCell id="f55HqNZ3i_IYQzIqUW61-1" value="upload resume" style="whiteSpace=wrap;html=1;rounded=1;arcSize=30;" parent="5oRt-FKKoN_MMxPoQZqj-2" vertex="1">
          <mxGeometry x="460" y="111" width="70" height="29" as="geometry" />
        </mxCell>
        <mxCell id="f55HqNZ3i_IYQzIqUW61-3" value="send/receive messages" style="whiteSpace=wrap;html=1;rounded=1;arcSize=30;" parent="5oRt-FKKoN_MMxPoQZqj-2" vertex="1">
          <mxGeometry x="550" y="20" width="70" height="39" as="geometry" />
        </mxCell>
        <mxCell id="My7vY06l3fIDORvMt6cX-15" style="edgeStyle=orthogonalEdgeStyle;rounded=0;orthogonalLoop=1;jettySize=auto;html=1;exitX=0.5;exitY=1;exitDx=0;exitDy=0;entryX=0.5;entryY=0;entryDx=0;entryDy=0;" parent="5oRt-FKKoN_MMxPoQZqj-2" source="pEwft9RbsrwW7HtKcZhf-1" target="o_PR_Zc7ef4Uzc-oTawg-1" edge="1">
          <mxGeometry relative="1" as="geometry" />
        </mxCell>
        <mxCell id="pEwft9RbsrwW7HtKcZhf-1" value="view application status" style="whiteSpace=wrap;html=1;rounded=1;arcSize=30;" parent="5oRt-FKKoN_MMxPoQZqj-2" vertex="1">
          <mxGeometry x="690" y="22" width="90" height="38" as="geometry" />
        </mxCell>
        <mxCell id="pEwft9RbsrwW7HtKcZhf-2" value="" style="edgeStyle=orthogonalEdgeStyle;rounded=0;orthogonalLoop=1;jettySize=auto;html=1;" parent="5oRt-FKKoN_MMxPoQZqj-2" source="f55HqNZ3i_IYQzIqUW61-3" target="pEwft9RbsrwW7HtKcZhf-1" edge="1">
          <mxGeometry relative="1" as="geometry" />
        </mxCell>
        <mxCell id="My7vY06l3fIDORvMt6cX-16" style="edgeStyle=orthogonalEdgeStyle;rounded=0;orthogonalLoop=1;jettySize=auto;html=1;exitX=1;exitY=0.5;exitDx=0;exitDy=0;entryX=0;entryY=0.5;entryDx=0;entryDy=0;" parent="5oRt-FKKoN_MMxPoQZqj-2" source="o_PR_Zc7ef4Uzc-oTawg-1" target="oFQKmoD6vKHRHgk4T00l-1" edge="1">
          <mxGeometry relative="1" as="geometry" />
        </mxCell>
        <mxCell id="o_PR_Zc7ef4Uzc-oTawg-1" value="receive interview" style="rounded=1;whiteSpace=wrap;html=1;arcSize=33;" parent="5oRt-FKKoN_MMxPoQZqj-2" vertex="1">
          <mxGeometry x="700" y="110" width="80" height="30" as="geometry" />
        </mxCell>
        <mxCell id="oFQKmoD6vKHRHgk4T00l-1" value="accept/declines the offer" style="rounded=1;whiteSpace=wrap;html=1;arcSize=38;" parent="5oRt-FKKoN_MMxPoQZqj-2" vertex="1">
          <mxGeometry x="820" y="105.5" width="80" height="34.5" as="geometry" />
        </mxCell>
        <mxCell id="My7vY06l3fIDORvMt6cX-1" value="log out" style="rounded=1;whiteSpace=wrap;html=1;arcSize=37;" parent="5oRt-FKKoN_MMxPoQZqj-2" vertex="1">
          <mxGeometry x="810" y="25" width="80" height="35" as="geometry" />
        </mxCell>
        <mxCell id="My7vY06l3fIDORvMt6cX-2" value="" style="points=[[0.145,0.145,0],[0.5,0,0],[0.855,0.145,0],[1,0.5,0],[0.855,0.855,0],[0.5,1,0],[0.145,0.855,0],[0,0.5,0]];shape=mxgraph.bpmn.event;html=1;verticalLabelPosition=bottom;labelBackgroundColor=#ffffff;verticalAlign=top;align=center;perimeter=ellipsePerimeter;outlineConnect=0;aspect=fixed;outline=end;symbol=terminate2;" parent="5oRt-FKKoN_MMxPoQZqj-2" vertex="1">
          <mxGeometry x="920" y="55" width="35" height="35" as="geometry" />
        </mxCell>
        <mxCell id="My7vY06l3fIDORvMt6cX-17" style="edgeStyle=orthogonalEdgeStyle;rounded=0;orthogonalLoop=1;jettySize=auto;html=1;exitX=0.5;exitY=0;exitDx=0;exitDy=0;entryX=0.6;entryY=0.886;entryDx=0;entryDy=0;entryPerimeter=0;" parent="5oRt-FKKoN_MMxPoQZqj-2" source="oFQKmoD6vKHRHgk4T00l-1" target="My7vY06l3fIDORvMt6cX-1" edge="1">
          <mxGeometry relative="1" as="geometry" />
        </mxCell>
        <mxCell id="My7vY06l3fIDORvMt6cX-18" style="edgeStyle=orthogonalEdgeStyle;rounded=0;orthogonalLoop=1;jettySize=auto;html=1;exitX=1;exitY=0.5;exitDx=0;exitDy=0;entryX=0.5;entryY=0;entryDx=0;entryDy=0;entryPerimeter=0;" parent="5oRt-FKKoN_MMxPoQZqj-2" source="My7vY06l3fIDORvMt6cX-1" target="My7vY06l3fIDORvMt6cX-2" edge="1">
          <mxGeometry relative="1" as="geometry" />
        </mxCell>
        <mxCell id="Bnx-gnk1eJ2lPvJRjgfy-21" value="" style="endArrow=none;dashed=1;html=1;dashPattern=1 3;strokeWidth=2;rounded=0;exitX=0.588;exitY=0.1;exitDx=0;exitDy=0;exitPerimeter=0;" edge="1" parent="5oRt-FKKoN_MMxPoQZqj-2" source="I8g5ZTHT6U_pwNbKCO0r-1">
          <mxGeometry width="50" height="50" relative="1" as="geometry">
            <mxPoint x="230" y="130" as="sourcePoint" />
            <mxPoint x="280" y="80" as="targetPoint" />
            <Array as="points">
              <mxPoint x="230" y="80" />
            </Array>
          </mxGeometry>
        </mxCell>
        <mxCell id="Bnx-gnk1eJ2lPvJRjgfy-27" value="" style="endArrow=none;dashed=1;html=1;dashPattern=1 3;strokeWidth=2;rounded=0;exitX=0.25;exitY=0;exitDx=0;exitDy=0;" edge="1" parent="5oRt-FKKoN_MMxPoQZqj-2" source="67LSB3qNFz8Bx1vOfMhI-1">
          <mxGeometry width="50" height="50" relative="1" as="geometry">
            <mxPoint x="390" y="190" as="sourcePoint" />
            <mxPoint x="390" y="120" as="targetPoint" />
            <Array as="points">
              <mxPoint x="390" y="160" />
            </Array>
          </mxGeometry>
        </mxCell>
        <mxCell id="Bnx-gnk1eJ2lPvJRjgfy-33" value="" style="endArrow=none;dashed=1;html=1;dashPattern=1 3;strokeWidth=2;rounded=0;" edge="1" parent="5oRt-FKKoN_MMxPoQZqj-2">
          <mxGeometry width="50" height="50" relative="1" as="geometry">
            <mxPoint x="730" y="270" as="sourcePoint" />
            <mxPoint x="600" y="70" as="targetPoint" />
            <Array as="points">
              <mxPoint x="730" y="250" />
              <mxPoint x="700" y="250" />
              <mxPoint x="700" y="150" />
              <mxPoint x="600" y="150" />
            </Array>
          </mxGeometry>
        </mxCell>
        <mxCell id="Bnx-gnk1eJ2lPvJRjgfy-34" value="" style="endArrow=none;dashed=1;html=1;dashPattern=1 3;strokeWidth=2;rounded=0;exitX=0.371;exitY=-0.133;exitDx=0;exitDy=0;exitPerimeter=0;" edge="1" parent="5oRt-FKKoN_MMxPoQZqj-2" source="SSPRuBQrYMU77uoH0vUs-1">
          <mxGeometry width="50" height="50" relative="1" as="geometry">
            <mxPoint x="740" y="180" as="sourcePoint" />
            <mxPoint x="870" y="140" as="targetPoint" />
            <Array as="points">
              <mxPoint x="730" y="160" />
              <mxPoint x="800" y="160" />
              <mxPoint x="870" y="160" />
            </Array>
          </mxGeometry>
        </mxCell>
        <mxCell id="5oRt-FKKoN_MMxPoQZqj-3" value="job provider" style="swimlane;html=1;startSize=20;horizontal=0;" parent="5oRt-FKKoN_MMxPoQZqj-1" vertex="1">
          <mxGeometry x="20" y="170" width="970" height="160" as="geometry" />
        </mxCell>
        <mxCell id="SSPRuBQrYMU77uoH0vUs-5" style="edgeStyle=orthogonalEdgeStyle;rounded=0;orthogonalLoop=1;jettySize=auto;html=1;exitX=1;exitY=0.5;exitDx=0;exitDy=0;exitPerimeter=0;entryX=0;entryY=0.25;entryDx=0;entryDy=0;" edge="1" parent="5oRt-FKKoN_MMxPoQZqj-3" source="rexJpBpAbX3eWByconlP-1" target="rexJpBpAbX3eWByconlP-2">
          <mxGeometry relative="1" as="geometry">
            <Array as="points">
              <mxPoint x="70" y="75" />
              <mxPoint x="70" y="28" />
            </Array>
          </mxGeometry>
        </mxCell>
        <mxCell id="rexJpBpAbX3eWByconlP-1" value="" style="points=[[0.145,0.145,0],[0.5,0,0],[0.855,0.145,0],[1,0.5,0],[0.855,0.855,0],[0.5,1,0],[0.145,0.855,0],[0,0.5,0]];shape=mxgraph.bpmn.event;html=1;verticalLabelPosition=bottom;labelBackgroundColor=#ffffff;verticalAlign=top;align=center;perimeter=ellipsePerimeter;outlineConnect=0;aspect=fixed;outline=standard;symbol=general;" vertex="1" parent="5oRt-FKKoN_MMxPoQZqj-3">
          <mxGeometry x="30" y="60" width="30" height="30" as="geometry" />
        </mxCell>
        <mxCell id="SSPRuBQrYMU77uoH0vUs-9" style="edgeStyle=orthogonalEdgeStyle;rounded=0;orthogonalLoop=1;jettySize=auto;html=1;exitX=1;exitY=0.5;exitDx=0;exitDy=0;entryX=0.5;entryY=0;entryDx=0;entryDy=0;" edge="1" parent="5oRt-FKKoN_MMxPoQZqj-3" source="rexJpBpAbX3eWByconlP-2" target="rexJpBpAbX3eWByconlP-4">
          <mxGeometry relative="1" as="geometry">
            <mxPoint x="200" y="35" as="targetPoint" />
          </mxGeometry>
        </mxCell>
        <mxCell id="rexJpBpAbX3eWByconlP-2" value="log in" style="rounded=1;whiteSpace=wrap;html=1;arcSize=33;" vertex="1" parent="5oRt-FKKoN_MMxPoQZqj-3">
          <mxGeometry x="90" y="20" width="60" height="30" as="geometry" />
        </mxCell>
        <mxCell id="rexJpBpAbX3eWByconlP-3" value="register" style="rounded=1;whiteSpace=wrap;html=1;arcSize=30;" vertex="1" parent="5oRt-FKKoN_MMxPoQZqj-3">
          <mxGeometry x="90" y="80" width="60" height="30" as="geometry" />
        </mxCell>
        <mxCell id="SSPRuBQrYMU77uoH0vUs-10" style="edgeStyle=orthogonalEdgeStyle;rounded=0;orthogonalLoop=1;jettySize=auto;html=1;exitX=0.5;exitY=1;exitDx=0;exitDy=0;entryX=0.75;entryY=1;entryDx=0;entryDy=0;" edge="1" parent="5oRt-FKKoN_MMxPoQZqj-3" source="rexJpBpAbX3eWByconlP-4" target="rexJpBpAbX3eWByconlP-3">
          <mxGeometry relative="1" as="geometry" />
        </mxCell>
        <mxCell id="SSPRuBQrYMU77uoH0vUs-12" style="edgeStyle=orthogonalEdgeStyle;rounded=0;orthogonalLoop=1;jettySize=auto;html=1;exitX=1;exitY=0.5;exitDx=0;exitDy=0;entryX=0.5;entryY=1;entryDx=0;entryDy=0;" edge="1" parent="5oRt-FKKoN_MMxPoQZqj-3" source="rexJpBpAbX3eWByconlP-4" target="rexJpBpAbX3eWByconlP-5">
          <mxGeometry relative="1" as="geometry" />
        </mxCell>
        <mxCell id="rexJpBpAbX3eWByconlP-4" value="" style="rhombus;whiteSpace=wrap;html=1;" vertex="1" parent="5oRt-FKKoN_MMxPoQZqj-3">
          <mxGeometry x="180" y="50" width="50" height="45" as="geometry" />
        </mxCell>
        <mxCell id="SSPRuBQrYMU77uoH0vUs-13" style="edgeStyle=orthogonalEdgeStyle;rounded=0;orthogonalLoop=1;jettySize=auto;html=1;exitX=1;exitY=0.5;exitDx=0;exitDy=0;entryX=0;entryY=0.5;entryDx=0;entryDy=0;" edge="1" parent="5oRt-FKKoN_MMxPoQZqj-3" source="rexJpBpAbX3eWByconlP-5" target="67LSB3qNFz8Bx1vOfMhI-1">
          <mxGeometry relative="1" as="geometry" />
        </mxCell>
        <mxCell id="rexJpBpAbX3eWByconlP-5" value="create profile" style="rounded=1;whiteSpace=wrap;html=1;arcSize=33;" vertex="1" parent="5oRt-FKKoN_MMxPoQZqj-3">
          <mxGeometry x="250" y="30" width="70" height="30" as="geometry" />
        </mxCell>
        <mxCell id="SSPRuBQrYMU77uoH0vUs-14" style="edgeStyle=orthogonalEdgeStyle;rounded=0;orthogonalLoop=1;jettySize=auto;html=1;exitX=0.5;exitY=1;exitDx=0;exitDy=0;" edge="1" parent="5oRt-FKKoN_MMxPoQZqj-3" source="67LSB3qNFz8Bx1vOfMhI-1" target="67LSB3qNFz8Bx1vOfMhI-2">
          <mxGeometry relative="1" as="geometry" />
        </mxCell>
        <mxCell id="67LSB3qNFz8Bx1vOfMhI-1" value="job posting" style="rounded=1;whiteSpace=wrap;html=1;arcSize=37;" vertex="1" parent="5oRt-FKKoN_MMxPoQZqj-3">
          <mxGeometry x="370" y="30" width="70" height="30" as="geometry" />
        </mxCell>
        <mxCell id="SSPRuBQrYMU77uoH0vUs-16" style="edgeStyle=orthogonalEdgeStyle;rounded=0;orthogonalLoop=1;jettySize=auto;html=1;exitX=1;exitY=0.5;exitDx=0;exitDy=0;entryX=0;entryY=0.5;entryDx=0;entryDy=0;" edge="1" parent="5oRt-FKKoN_MMxPoQZqj-3" source="67LSB3qNFz8Bx1vOfMhI-2" target="Wa5OYiH5HPpNzpk-7ms5-1">
          <mxGeometry relative="1" as="geometry" />
        </mxCell>
        <mxCell id="67LSB3qNFz8Bx1vOfMhI-2" value="job list" style="rounded=1;whiteSpace=wrap;html=1;arcSize=37;" vertex="1" parent="5oRt-FKKoN_MMxPoQZqj-3">
          <mxGeometry x="370" y="100" width="70" height="30" as="geometry" />
        </mxCell>
        <mxCell id="SSPRuBQrYMU77uoH0vUs-17" style="edgeStyle=orthogonalEdgeStyle;rounded=0;orthogonalLoop=1;jettySize=auto;html=1;exitX=0.5;exitY=0;exitDx=0;exitDy=0;entryX=0.5;entryY=1;entryDx=0;entryDy=0;" edge="1" parent="5oRt-FKKoN_MMxPoQZqj-3" source="Wa5OYiH5HPpNzpk-7ms5-1" target="Wa5OYiH5HPpNzpk-7ms5-2">
          <mxGeometry relative="1" as="geometry" />
        </mxCell>
        <mxCell id="Wa5OYiH5HPpNzpk-7ms5-1" value="view job application" style="rounded=1;whiteSpace=wrap;html=1;arcSize=30;" vertex="1" parent="5oRt-FKKoN_MMxPoQZqj-3">
          <mxGeometry x="485" y="100" width="70" height="30" as="geometry" />
        </mxCell>
        <mxCell id="SSPRuBQrYMU77uoH0vUs-18" style="edgeStyle=orthogonalEdgeStyle;rounded=0;orthogonalLoop=1;jettySize=auto;html=1;exitX=0;exitY=0.5;exitDx=0;exitDy=0;entryX=1;entryY=0.5;entryDx=0;entryDy=0;" edge="1" parent="5oRt-FKKoN_MMxPoQZqj-3" source="Wa5OYiH5HPpNzpk-7ms5-2" target="67LSB3qNFz8Bx1vOfMhI-1">
          <mxGeometry relative="1" as="geometry" />
        </mxCell>
        <mxCell id="SSPRuBQrYMU77uoH0vUs-19" style="edgeStyle=orthogonalEdgeStyle;rounded=0;orthogonalLoop=1;jettySize=auto;html=1;exitX=1;exitY=0.5;exitDx=0;exitDy=0;entryX=0;entryY=0.5;entryDx=0;entryDy=0;" edge="1" parent="5oRt-FKKoN_MMxPoQZqj-3" source="Wa5OYiH5HPpNzpk-7ms5-2" target="RpQaXfbN4W0815sJ5IVZ-1">
          <mxGeometry relative="1" as="geometry" />
        </mxCell>
        <mxCell id="Wa5OYiH5HPpNzpk-7ms5-2" value="shortlist candidate" style="rounded=1;whiteSpace=wrap;html=1;arcSize=37;" vertex="1" parent="5oRt-FKKoN_MMxPoQZqj-3">
          <mxGeometry x="475" y="30" width="80" height="30" as="geometry" />
        </mxCell>
        <mxCell id="RpQaXfbN4W0815sJ5IVZ-1" value="chat" style="rounded=1;whiteSpace=wrap;html=1;arcSize=30;" vertex="1" parent="5oRt-FKKoN_MMxPoQZqj-3">
          <mxGeometry x="600" y="30" width="60" height="30" as="geometry" />
        </mxCell>
        <mxCell id="SSPRuBQrYMU77uoH0vUs-24" style="edgeStyle=orthogonalEdgeStyle;rounded=0;orthogonalLoop=1;jettySize=auto;html=1;exitX=1;exitY=0.5;exitDx=0;exitDy=0;entryX=0;entryY=0.75;entryDx=0;entryDy=0;" edge="1" parent="5oRt-FKKoN_MMxPoQZqj-3" source="qRgRLs1TFO99YE8Ww9Ck-1" target="qRgRLs1TFO99YE8Ww9Ck-2">
          <mxGeometry relative="1" as="geometry" />
        </mxCell>
        <mxCell id="qRgRLs1TFO99YE8Ww9Ck-1" value="interview scheduled" style="rounded=1;whiteSpace=wrap;html=1;arcSize=33;" vertex="1" parent="5oRt-FKKoN_MMxPoQZqj-3">
          <mxGeometry x="600" y="110" width="70" height="30" as="geometry" />
        </mxCell>
        <mxCell id="SSPRuBQrYMU77uoH0vUs-25" style="edgeStyle=orthogonalEdgeStyle;rounded=0;orthogonalLoop=1;jettySize=auto;html=1;exitX=0.5;exitY=0;exitDx=0;exitDy=0;entryX=0.75;entryY=1;entryDx=0;entryDy=0;" edge="1" parent="5oRt-FKKoN_MMxPoQZqj-3" source="qRgRLs1TFO99YE8Ww9Ck-2" target="SSPRuBQrYMU77uoH0vUs-1">
          <mxGeometry relative="1" as="geometry" />
        </mxCell>
        <mxCell id="qRgRLs1TFO99YE8Ww9Ck-2" value="send/receive messages" style="rounded=1;whiteSpace=wrap;html=1;arcSize=40;" vertex="1" parent="5oRt-FKKoN_MMxPoQZqj-3">
          <mxGeometry x="710" y="110" width="80" height="30" as="geometry" />
        </mxCell>
        <mxCell id="SSPRuBQrYMU77uoH0vUs-28" style="edgeStyle=orthogonalEdgeStyle;rounded=0;orthogonalLoop=1;jettySize=auto;html=1;exitX=1;exitY=0.25;exitDx=0;exitDy=0;entryX=0;entryY=0.75;entryDx=0;entryDy=0;" edge="1" parent="5oRt-FKKoN_MMxPoQZqj-3" source="SSPRuBQrYMU77uoH0vUs-1" target="SSPRuBQrYMU77uoH0vUs-2">
          <mxGeometry relative="1" as="geometry" />
        </mxCell>
        <mxCell id="SSPRuBQrYMU77uoH0vUs-1" value="extend job offers" style="rounded=1;whiteSpace=wrap;html=1;arcSize=47;" vertex="1" parent="5oRt-FKKoN_MMxPoQZqj-3">
          <mxGeometry x="705" y="30" width="70" height="30" as="geometry" />
        </mxCell>
        <mxCell id="SSPRuBQrYMU77uoH0vUs-30" style="edgeStyle=orthogonalEdgeStyle;rounded=0;orthogonalLoop=1;jettySize=auto;html=1;exitX=0.5;exitY=1;exitDx=0;exitDy=0;entryX=0.25;entryY=0;entryDx=0;entryDy=0;" edge="1" parent="5oRt-FKKoN_MMxPoQZqj-3" source="SSPRuBQrYMU77uoH0vUs-2" target="SSPRuBQrYMU77uoH0vUs-3">
          <mxGeometry relative="1" as="geometry" />
        </mxCell>
        <mxCell id="SSPRuBQrYMU77uoH0vUs-2" value="manage accounts" style="rounded=1;whiteSpace=wrap;html=1;arcSize=40;" vertex="1" parent="5oRt-FKKoN_MMxPoQZqj-3">
          <mxGeometry x="820" y="25" width="70" height="25" as="geometry" />
        </mxCell>
        <mxCell id="SSPRuBQrYMU77uoH0vUs-3" value="log out" style="rounded=1;whiteSpace=wrap;html=1;arcSize=37;" vertex="1" parent="5oRt-FKKoN_MMxPoQZqj-3">
          <mxGeometry x="820" y="100" width="60" height="30" as="geometry" />
        </mxCell>
        <mxCell id="SSPRuBQrYMU77uoH0vUs-4" value="" style="points=[[0.145,0.145,0],[0.5,0,0],[0.855,0.145,0],[1,0.5,0],[0.855,0.855,0],[0.5,1,0],[0.145,0.855,0],[0,0.5,0]];shape=mxgraph.bpmn.event;html=1;verticalLabelPosition=bottom;labelBackgroundColor=#ffffff;verticalAlign=top;align=center;perimeter=ellipsePerimeter;outlineConnect=0;aspect=fixed;outline=end;symbol=terminate2;" vertex="1" parent="5oRt-FKKoN_MMxPoQZqj-3">
          <mxGeometry x="910" y="50" width="30" height="30" as="geometry" />
        </mxCell>
        <mxCell id="SSPRuBQrYMU77uoH0vUs-23" style="edgeStyle=orthogonalEdgeStyle;rounded=0;orthogonalLoop=1;jettySize=auto;html=1;exitX=0.5;exitY=1;exitDx=0;exitDy=0;entryX=0.357;entryY=0.1;entryDx=0;entryDy=0;entryPerimeter=0;" edge="1" parent="5oRt-FKKoN_MMxPoQZqj-3" source="RpQaXfbN4W0815sJ5IVZ-1" target="qRgRLs1TFO99YE8Ww9Ck-1">
          <mxGeometry relative="1" as="geometry" />
        </mxCell>
        <mxCell id="SSPRuBQrYMU77uoH0vUs-32" style="edgeStyle=orthogonalEdgeStyle;rounded=0;orthogonalLoop=1;jettySize=auto;html=1;exitX=1;exitY=0.5;exitDx=0;exitDy=0;entryX=0.5;entryY=1;entryDx=0;entryDy=0;entryPerimeter=0;" edge="1" parent="5oRt-FKKoN_MMxPoQZqj-3" source="SSPRuBQrYMU77uoH0vUs-3" target="SSPRuBQrYMU77uoH0vUs-4">
          <mxGeometry relative="1" as="geometry" />
        </mxCell>
        <mxCell id="Bnx-gnk1eJ2lPvJRjgfy-22" value="" style="endArrow=none;dashed=1;html=1;dashPattern=1 3;strokeWidth=2;rounded=0;exitX=0.75;exitY=0;exitDx=0;exitDy=0;" edge="1" parent="5oRt-FKKoN_MMxPoQZqj-3" source="I8g5ZTHT6U_pwNbKCO0r-1">
          <mxGeometry width="50" height="50" relative="1" as="geometry">
            <mxPoint x="250" y="110" as="sourcePoint" />
            <mxPoint x="300" y="60" as="targetPoint" />
            <Array as="points">
              <mxPoint x="240" y="120" />
              <mxPoint x="300" y="120" />
            </Array>
          </mxGeometry>
        </mxCell>
        <mxCell id="Bnx-gnk1eJ2lPvJRjgfy-28" value="" style="endArrow=none;dashed=1;html=1;dashPattern=1 3;strokeWidth=2;rounded=0;exitX=0.75;exitY=0;exitDx=0;exitDy=0;" edge="1" parent="5oRt-FKKoN_MMxPoQZqj-3" source="6zyFIXlrrWLUithoi6Tf-1">
          <mxGeometry width="50" height="50" relative="1" as="geometry">
            <mxPoint x="350" y="180" as="sourcePoint" />
            <mxPoint x="400" y="130" as="targetPoint" />
            <Array as="points">
              <mxPoint x="340" y="170" />
              <mxPoint x="400" y="170" />
            </Array>
          </mxGeometry>
        </mxCell>
        <mxCell id="Bnx-gnk1eJ2lPvJRjgfy-29" value="" style="endArrow=none;dashed=1;html=1;dashPattern=1 3;strokeWidth=2;rounded=0;" edge="1" parent="5oRt-FKKoN_MMxPoQZqj-3">
          <mxGeometry width="50" height="50" relative="1" as="geometry">
            <mxPoint x="440" y="190" as="sourcePoint" />
            <mxPoint x="620" y="150" as="targetPoint" />
            <Array as="points">
              <mxPoint x="440" y="170" />
              <mxPoint x="620" y="170" />
              <mxPoint x="620" y="150" />
              <mxPoint x="620" y="140" />
            </Array>
          </mxGeometry>
        </mxCell>
        <mxCell id="Bnx-gnk1eJ2lPvJRjgfy-30" value="" style="endArrow=none;dashed=1;html=1;dashPattern=1 3;strokeWidth=2;rounded=0;entryX=0.25;entryY=1;entryDx=0;entryDy=0;" edge="1" parent="5oRt-FKKoN_MMxPoQZqj-3" target="o_PR_Zc7ef4Uzc-oTawg-1">
          <mxGeometry width="50" height="50" relative="1" as="geometry">
            <mxPoint x="650" y="110" as="sourcePoint" />
            <mxPoint x="730" y="10" as="targetPoint" />
            <Array as="points">
              <mxPoint x="650" y="90" />
              <mxPoint x="680" y="90" />
              <mxPoint x="680" y="10" />
              <mxPoint x="720" y="10" />
            </Array>
          </mxGeometry>
        </mxCell>
        <mxCell id="Bnx-gnk1eJ2lPvJRjgfy-32" value="" style="endArrow=none;dashed=1;html=1;dashPattern=1 3;strokeWidth=2;rounded=0;exitX=0.347;exitY=-0.025;exitDx=0;exitDy=0;exitPerimeter=0;" edge="1" parent="5oRt-FKKoN_MMxPoQZqj-3" source="n7yJoK1ga_e70gayE8cN-1">
          <mxGeometry width="50" height="50" relative="1" as="geometry">
            <mxPoint x="480" y="240" as="sourcePoint" />
            <mxPoint x="750" y="140" as="targetPoint" />
            <Array as="points">
              <mxPoint x="480" y="180" />
              <mxPoint x="640" y="180" />
              <mxPoint x="640" y="170" />
              <mxPoint x="750" y="170" />
            </Array>
          </mxGeometry>
        </mxCell>
        <mxCell id="5oRt-FKKoN_MMxPoQZqj-4" value="job admin" style="swimlane;html=1;startSize=20;horizontal=0;" parent="5oRt-FKKoN_MMxPoQZqj-1" vertex="1">
          <mxGeometry x="20" y="330" width="970" height="150" as="geometry" />
        </mxCell>
        <mxCell id="Bnx-gnk1eJ2lPvJRjgfy-6" style="edgeStyle=orthogonalEdgeStyle;rounded=0;orthogonalLoop=1;jettySize=auto;html=1;exitX=1;exitY=0.5;exitDx=0;exitDy=0;exitPerimeter=0;entryX=0;entryY=0.25;entryDx=0;entryDy=0;" edge="1" parent="5oRt-FKKoN_MMxPoQZqj-4" source="MHfCqGBC9MZTQ3Fx9cSv-1" target="MHfCqGBC9MZTQ3Fx9cSv-3">
          <mxGeometry relative="1" as="geometry" />
        </mxCell>
        <mxCell id="MHfCqGBC9MZTQ3Fx9cSv-1" value="" style="points=[[0.145,0.145,0],[0.5,0,0],[0.855,0.145,0],[1,0.5,0],[0.855,0.855,0],[0.5,1,0],[0.145,0.855,0],[0,0.5,0]];shape=mxgraph.bpmn.event;html=1;verticalLabelPosition=bottom;labelBackgroundColor=#ffffff;verticalAlign=top;align=center;perimeter=ellipsePerimeter;outlineConnect=0;aspect=fixed;outline=standard;symbol=general;" vertex="1" parent="5oRt-FKKoN_MMxPoQZqj-4">
          <mxGeometry x="30" y="50" width="30" height="30" as="geometry" />
        </mxCell>
        <mxCell id="Bnx-gnk1eJ2lPvJRjgfy-8" style="edgeStyle=orthogonalEdgeStyle;rounded=0;orthogonalLoop=1;jettySize=auto;html=1;exitX=1;exitY=0.5;exitDx=0;exitDy=0;entryX=0;entryY=0.5;entryDx=0;entryDy=0;" edge="1" parent="5oRt-FKKoN_MMxPoQZqj-4" source="MHfCqGBC9MZTQ3Fx9cSv-3" target="I8g5ZTHT6U_pwNbKCO0r-1">
          <mxGeometry relative="1" as="geometry" />
        </mxCell>
        <mxCell id="MHfCqGBC9MZTQ3Fx9cSv-3" value="log in" style="rounded=1;whiteSpace=wrap;html=1;arcSize=33;" vertex="1" parent="5oRt-FKKoN_MMxPoQZqj-4">
          <mxGeometry x="100" y="30" width="50" height="30" as="geometry" />
        </mxCell>
        <mxCell id="I8g5ZTHT6U_pwNbKCO0r-1" value="view profiles" style="rounded=1;whiteSpace=wrap;html=1;arcSize=47;" vertex="1" parent="5oRt-FKKoN_MMxPoQZqj-4">
          <mxGeometry x="180" y="30" width="80" height="30" as="geometry" />
        </mxCell>
        <mxCell id="Bnx-gnk1eJ2lPvJRjgfy-10" style="edgeStyle=orthogonalEdgeStyle;rounded=0;orthogonalLoop=1;jettySize=auto;html=1;exitX=1;exitY=0.5;exitDx=0;exitDy=0;" edge="1" parent="5oRt-FKKoN_MMxPoQZqj-4" source="I8g5ZTHT6U_pwNbKCO0r-2">
          <mxGeometry relative="1" as="geometry">
            <mxPoint x="280" y="115" as="targetPoint" />
          </mxGeometry>
        </mxCell>
        <mxCell id="I8g5ZTHT6U_pwNbKCO0r-2" value="verification profiles" style="rounded=1;whiteSpace=wrap;html=1;arcSize=28;" vertex="1" parent="5oRt-FKKoN_MMxPoQZqj-4">
          <mxGeometry x="180" y="100" width="80" height="30" as="geometry" />
        </mxCell>
        <mxCell id="Bnx-gnk1eJ2lPvJRjgfy-12" style="edgeStyle=orthogonalEdgeStyle;rounded=0;orthogonalLoop=1;jettySize=auto;html=1;exitX=1;exitY=0.5;exitDx=0;exitDy=0;entryX=0;entryY=0.5;entryDx=0;entryDy=0;" edge="1" parent="5oRt-FKKoN_MMxPoQZqj-4" source="6zyFIXlrrWLUithoi6Tf-1" target="MHfCqGBC9MZTQ3Fx9cSv-2">
          <mxGeometry relative="1" as="geometry" />
        </mxCell>
        <mxCell id="6zyFIXlrrWLUithoi6Tf-1" value="manage job listing" style="rounded=1;whiteSpace=wrap;html=1;arcSize=47;" vertex="1" parent="5oRt-FKKoN_MMxPoQZqj-4">
          <mxGeometry x="280" y="30" width="80" height="30" as="geometry" />
        </mxCell>
        <mxCell id="Bnx-gnk1eJ2lPvJRjgfy-11" style="edgeStyle=orthogonalEdgeStyle;rounded=0;orthogonalLoop=1;jettySize=auto;html=1;exitX=0.5;exitY=0;exitDx=0;exitDy=0;entryX=0.5;entryY=1;entryDx=0;entryDy=0;" edge="1" parent="5oRt-FKKoN_MMxPoQZqj-4" source="nicN_16AfhfrfCb5xk9Q-1" target="6zyFIXlrrWLUithoi6Tf-1">
          <mxGeometry relative="1" as="geometry" />
        </mxCell>
        <mxCell id="nicN_16AfhfrfCb5xk9Q-1" value="download details" style="rounded=1;whiteSpace=wrap;html=1;arcSize=34;" vertex="1" parent="5oRt-FKKoN_MMxPoQZqj-4">
          <mxGeometry x="284" y="100" width="76" height="30" as="geometry" />
        </mxCell>
        <mxCell id="MHfCqGBC9MZTQ3Fx9cSv-2" value="shortlist interviews" style="rounded=1;whiteSpace=wrap;html=1;arcSize=27;" vertex="1" parent="5oRt-FKKoN_MMxPoQZqj-4">
          <mxGeometry x="400" y="30" width="70" height="30" as="geometry" />
        </mxCell>
        <mxCell id="Bnx-gnk1eJ2lPvJRjgfy-14" style="edgeStyle=orthogonalEdgeStyle;rounded=0;orthogonalLoop=1;jettySize=auto;html=1;exitX=0.5;exitY=0;exitDx=0;exitDy=0;entryX=0;entryY=0.25;entryDx=0;entryDy=0;" edge="1" parent="5oRt-FKKoN_MMxPoQZqj-4" source="n7yJoK1ga_e70gayE8cN-1" target="Bnx-gnk1eJ2lPvJRjgfy-1">
          <mxGeometry relative="1" as="geometry" />
        </mxCell>
        <mxCell id="n7yJoK1ga_e70gayE8cN-1" value="communication with jobseekerandjobprovider" style="rounded=1;whiteSpace=wrap;html=1;arcSize=43;" vertex="1" parent="5oRt-FKKoN_MMxPoQZqj-4">
          <mxGeometry x="430" y="90" width="150" height="40" as="geometry" />
        </mxCell>
        <mxCell id="Bnx-gnk1eJ2lPvJRjgfy-15" style="edgeStyle=orthogonalEdgeStyle;rounded=0;orthogonalLoop=1;jettySize=auto;html=1;exitX=1;exitY=0.5;exitDx=0;exitDy=0;entryX=0;entryY=0.5;entryDx=0;entryDy=0;" edge="1" parent="5oRt-FKKoN_MMxPoQZqj-4" source="Bnx-gnk1eJ2lPvJRjgfy-1" target="Bnx-gnk1eJ2lPvJRjgfy-3">
          <mxGeometry relative="1" as="geometry" />
        </mxCell>
        <mxCell id="Bnx-gnk1eJ2lPvJRjgfy-1" value="secure documents" style="rounded=1;whiteSpace=wrap;html=1;arcSize=43;" vertex="1" parent="5oRt-FKKoN_MMxPoQZqj-4">
          <mxGeometry x="525" y="30" width="85" height="30" as="geometry" />
        </mxCell>
        <mxCell id="Bnx-gnk1eJ2lPvJRjgfy-16" style="edgeStyle=orthogonalEdgeStyle;rounded=0;orthogonalLoop=1;jettySize=auto;html=1;exitX=0.5;exitY=1;exitDx=0;exitDy=0;entryX=0.5;entryY=0;entryDx=0;entryDy=0;" edge="1" parent="5oRt-FKKoN_MMxPoQZqj-4" source="Bnx-gnk1eJ2lPvJRjgfy-3" target="Bnx-gnk1eJ2lPvJRjgfy-4">
          <mxGeometry relative="1" as="geometry" />
        </mxCell>
        <mxCell id="Bnx-gnk1eJ2lPvJRjgfy-3" value="job completion" style="rounded=1;whiteSpace=wrap;html=1;arcSize=40;" vertex="1" parent="5oRt-FKKoN_MMxPoQZqj-4">
          <mxGeometry x="650" y="25" width="90" height="40" as="geometry" />
        </mxCell>
        <mxCell id="Bnx-gnk1eJ2lPvJRjgfy-4" value="log out" style="rounded=1;whiteSpace=wrap;html=1;arcSize=30;" vertex="1" parent="5oRt-FKKoN_MMxPoQZqj-4">
          <mxGeometry x="655" y="90" width="80" height="40" as="geometry" />
        </mxCell>
        <mxCell id="Bnx-gnk1eJ2lPvJRjgfy-5" value="" style="points=[[0.145,0.145,0],[0.5,0,0],[0.855,0.145,0],[1,0.5,0],[0.855,0.855,0],[0.5,1,0],[0.145,0.855,0],[0,0.5,0]];shape=mxgraph.bpmn.event;html=1;verticalLabelPosition=bottom;labelBackgroundColor=#ffffff;verticalAlign=top;align=center;perimeter=ellipsePerimeter;outlineConnect=0;aspect=fixed;outline=end;symbol=terminate2;" vertex="1" parent="5oRt-FKKoN_MMxPoQZqj-4">
          <mxGeometry x="810" y="90" width="30" height="30" as="geometry" />
        </mxCell>
        <mxCell id="Bnx-gnk1eJ2lPvJRjgfy-9" style="edgeStyle=orthogonalEdgeStyle;rounded=0;orthogonalLoop=1;jettySize=auto;html=1;exitX=0.5;exitY=1;exitDx=0;exitDy=0;entryX=0.4;entryY=0.167;entryDx=0;entryDy=0;entryPerimeter=0;" edge="1" parent="5oRt-FKKoN_MMxPoQZqj-4" source="I8g5ZTHT6U_pwNbKCO0r-1" target="I8g5ZTHT6U_pwNbKCO0r-2">
          <mxGeometry relative="1" as="geometry" />
        </mxCell>
        <mxCell id="Bnx-gnk1eJ2lPvJRjgfy-13" style="edgeStyle=orthogonalEdgeStyle;rounded=0;orthogonalLoop=1;jettySize=auto;html=1;exitX=0.75;exitY=1;exitDx=0;exitDy=0;entryX=0.067;entryY=0.025;entryDx=0;entryDy=0;entryPerimeter=0;" edge="1" parent="5oRt-FKKoN_MMxPoQZqj-4" source="MHfCqGBC9MZTQ3Fx9cSv-2" target="n7yJoK1ga_e70gayE8cN-1">
          <mxGeometry relative="1" as="geometry" />
        </mxCell>
        <mxCell id="Bnx-gnk1eJ2lPvJRjgfy-18" style="edgeStyle=orthogonalEdgeStyle;rounded=0;orthogonalLoop=1;jettySize=auto;html=1;exitX=1;exitY=0.5;exitDx=0;exitDy=0;entryX=0;entryY=0.5;entryDx=0;entryDy=0;entryPerimeter=0;" edge="1" parent="5oRt-FKKoN_MMxPoQZqj-4" source="Bnx-gnk1eJ2lPvJRjgfy-4" target="Bnx-gnk1eJ2lPvJRjgfy-5">
          <mxGeometry relative="1" as="geometry" />
        </mxCell>
      </root>
    </mxGraphModel>
  </diagram>
</mxfile>
